<svg xmlns="http://www.w3.org/2000/svg" width="594" height="506" viewBox="0 0 594 506"><g fill="none" fill-rule="evenodd"><g><g><g><g transform="translate(-696 -158) translate(696 158) translate(27.542)"><circle cx="40.411" cy="87.533" r="6.41" fill="#F16F38"></circle><path fill="#EC615B" d="M54.032 98.85H55.032V99.85H54.032z"></path><circle cx="143.618" cy="338.313" r="4.707" fill="#F16F38"></circle><circle cx="465.406" cy="59.19" r="6.71" fill="#F16F38"></circle><circle cx="221.086" cy="55.334" r="2.804" fill="#F16F38"></circle><circle cx="47.572" cy="63.797" r="4.557" fill="#0071AC"></circle><circle cx="155.286" cy="330.502" r="2.504" fill="#F16F38"></circle><circle cx="222.538" cy="40.862" r="2.954" fill="#F16F38"></circle><circle cx="449.532" cy="44.017" r="1.703" fill="#F16F38"></circle><path fill="#F16F38" d="M440.468 244.42c1.302-2.603 4.357.752 5.258 1.754.902 1.001 2.003 2.103 3.406 2.353 2.654.5 3.906-1.903 6.009-2.804 2.954-1.352 3.655 3.605 5.809 4.657 1.001.5 1.802.25 2.804-.05 1.152-.3 2.003-1.002 3.255-.651 1.502.4 2.554 1.652 2.754 3.205.1.951 1.602.951 1.502 0-.3-3.055-3.205-5.509-6.31-4.707-1.301.35-2.603 1.402-3.805.45-.701-.55-1.102-1.652-1.603-2.403-.7-1.052-1.502-2.053-2.804-2.254-1.502-.25-2.654.601-3.806 1.452-1.201.902-1.953 1.703-3.505 1.453-1.552-.3-2.303-1.453-3.355-2.554-1.653-1.803-5.408-3.606-6.91-.651-.401.851.9 1.602 1.301.75zM452.036 255.037c2.303-.35 4.707.3 6.46 1.803 1.252 1.051 1.652 2.353 2.504 3.655 1.752 2.654 3.956.35 6.26.1 3.554-.4 5.407 3.756 8.812 4.307 2.004.3 3.806-.55 4.557-2.454.35-.901-1.101-1.302-1.452-.4-1.702 4.256-7.11-1.603-9.164-2.554-.901-.4-1.903-.701-2.854-.601-1.302.1-3.656 2.003-4.857.901-.701-.65-1.002-2.103-1.703-2.904-.651-.801-1.452-1.502-2.354-2.003-2.053-1.252-4.306-1.603-6.66-1.252-.901.1-.5 1.552.451 1.402zM1.803 171.21c-.551-3.055-.651-6.06 2.854-7.261 1.402-.501 2.904-.751 4.056-1.753 2.103-1.803 1.953-4.657 1.803-7.21-.1-1.854-.55-4.708 2.253-3.957.902.25 1.853.601 2.755.15.7-.35 1.001-.951 1.201-1.652.451-1.502 0-2.704 1.302-3.956 1.052-1.052 2.354-1.352 3.806-1.152.952.15.952-1.352 0-1.502-1.602-.2-3.105.15-4.356 1.152-1.603 1.252-1.653 2.554-2.154 4.356-.75 2.554-2.604.45-4.457.801-1.151.2-1.652 1.002-1.902 2.054-.451 2.003.2 4.156.15 6.159-.15 3.756-2.654 4.106-5.509 5.258C-.3 164.249-.25 167.955.401 171.56c.1 1.002 1.552.601 1.402-.35zM18.528 161.295c-3.004-3.856.45-7.662 4.607-7.311 1.252.1 2.304 0 2.955-1.152.901-1.502.6-3.555 1.302-5.158 1.151-2.754 3.405-4.707 6.209-5.608.901-.3.5-1.753-.4-1.453-2.504.802-4.658 2.304-6.16 4.507-.851 1.252-1.452 2.654-1.703 4.157-.1.5-.1 1.452-.25 1.902-.4 1.302-1.652 1.152-2.804 1.202-5.308.3-8.263 5.559-4.807 10.015.55.752 1.602-.3 1.051-1.101z"></path><path fill="#0071AC" d="M160.293 36.305c-.851-2.804 1.903-5.709 4.707-4.206 3.055 1.602 2.003 6.059-1.352 6.41-.951.1-.951 1.602 0 1.502 4.507-.451 6.51-6.31 2.454-8.964-3.906-2.554-8.613 1.402-7.26 5.709.3.851 1.752.45 1.451-.45zM326.295 320.687c-2.053 2.453.751 4.557 2.905 5.408 1.652.65 2.754 1.502 3.004 3.355.1.851.1 1.703.3 2.504.2.65.451 1.252.902 1.702.701.751 3.405 1.453 3.005 2.855-.25.951 1.201 1.352 1.452.4.35-1.252-.05-2.153-1.102-3.004-.701-.551-1.703-.701-2.303-1.352-.952-1.002-.651-2.604-.852-3.806-.2-1.152-.55-2.153-1.452-2.955-.951-.8-6.46-2.103-4.807-4.106.65-.7-.4-1.752-1.052-1.001zM332.905 315.68c-.45 1.1-.05 2.152.851 2.903.852.702 2.204.752 2.955 1.553.801.851.701 2.003.901 3.105.25 1.402.751 2.453 2.053 3.154.952.501 2.004.651 2.905 1.202 1.652 1.052 2.604 2.854 2.854 4.757.1.952 1.603.952 1.502 0-.4-3.555-2.453-5.758-5.708-7.01-2.554-.952-1.803-3.105-2.654-5.108-.25-.651-.601-1.102-1.152-1.502-.851-.601-3.706-1.102-3.055-2.704.35-.852-1.101-1.252-1.452-.35zM350.382 14.322c-1.553-2.053 1.552-3.506 3.104-3.706 1.152-.15 2.354-.05 3.506-.25 1.602-.3 3.054-1.052 4.156-2.304 1.002-1.152 1.152-2.303 1.602-3.705.25-.852.902-2.254 1.853-2.654.35-.15 1.202.1 1.653.1.851.05 1.602.05 2.454-.15.951-.2.55-1.653-.401-1.453-2.003.4-4.757-.851-6.26 1.002-.55.7-.6 1.552-.7 2.403-.301 2.304-1.403 4.307-3.756 5.008-2.604.801-5.659-.25-7.812 1.903-1.252 1.252-1.703 3.005-.651 4.457.55.851 1.853.1 1.252-.651zM365.555 13.72c.05-2.503 1.302-4.806 3.505-6.108 1.653-1.002 3.505-.902 5.408-.902 2.554.05 5.008 0 6.66-2.203.551-.801-.75-1.553-1.302-.751-2.203 2.954-7.761.75-10.916 2.253-2.955 1.402-4.757 4.457-4.807 7.712-.05.951 1.452.951 1.452 0zM160.744 183.128c.45-.1.901-.25 1.402-.35.2.45.4.95.601 1.402.1.65-.15 1.402-.25 2.003-.1.75-.25 1.402-.2 2.153.1 1.101.55 2.303 1.552 2.854 1.502.801 3.205-.35 4.757.45 2.053 1.002 3.155 3.456 4.056 5.46.4.9 1.703.1 1.302-.752-.951-2.153-2.203-4.557-4.307-5.809-1.051-.6-1.852-.6-3.004-.7-1.202-.101-1.603 1.301-2.804-1.153-.35-.8.1-2.003.2-2.804.25-1.753.35-3.856-1.602-4.607-1.302-.5-2.905-.05-3.155 1.452-.15.952 1.302 1.352 1.452.4zM171.01 182.388c-1.453 1.001-.852 2.604.15 3.806 1.101 1.302 2.353 2.353 3.355 3.805 1.152 1.703 1.953 3.556 2.554 5.459.3.901 1.752.55 1.452-.4-.651-2.054-1.502-4.057-2.704-5.86-.551-.801-4.657-5.108-4.006-5.558.75-.501 0-1.803-.801-1.252z"></path></g><g><path fill="#FFF" d="M1.052 49.776C2.604 68.354 4.056 87.232.25 105.66c-.2.952 1.252 1.352 1.453.401 3.855-18.578 2.403-37.557.85-56.285-.1-.952-1.602-.952-1.501 0z" transform="translate(-696 -158) translate(696 158) translate(125.19 17.026)"></path><path fill="#FFF" d="M1.903 50.276c9.214.4 18.478.4 27.692-.05 7.962-.4 16.625-.4 24.036-3.605.902-.4.1-1.703-.75-1.302-7.712 3.355-16.977 3.155-25.24 3.505-8.562.35-17.175.35-25.738-.05-.952-.05-.952 1.452 0 1.502z" transform="translate(-696 -158) translate(696 158) translate(125.19 17.026)"></path><path fill="#FFF" d="M52.38 46.42c4.807 18.328 5.959 37.457 3.305 56.236-.15.951 1.301 1.352 1.452.4 2.654-19.079 1.552-38.408-3.305-57.036-.2-.952-1.653-.551-1.453.4z" transform="translate(-696 -158) translate(696 158) translate(125.19 17.026)"></path><path fill="#FFF" d="M.651 106.411c9.915 2.204 20.13 2.404 30.246 1.703 5.108-.35 10.265-.951 15.373-1.552 3.656-.451 7.462-.651 10.466-3.005.751-.6-.3-1.652-1.051-1.051-3.406 2.654-8.714 2.503-12.77 2.954-4.607.55-9.264 1.002-13.921 1.302-9.364.55-18.728.3-27.892-1.753C.1 104.76-.3 106.211.65 106.411zM4.657 102.005c1.202.05 2.354-.35 3.555-.45 1.453-.101 2.805.05 4.207.4.951.25 1.352-1.202.4-1.452-1.302-.351-2.654-.551-4.006-.501-1.402.05-2.754.55-4.156.5-.951-.05-.951 1.453 0 1.503zM5.558 98.5c2.454.05 4.958.05 7.412.1.951 0 .951-1.503 0-1.503-2.454-.05-4.958-.05-7.412-.1-.951-.05-.951 1.452 0 1.502zM6.06 94.744l6.56.3c.95.05.95-1.452 0-1.502l-6.56-.3c-.952-.05-.952 1.452 0 1.502zM6.76 85.23c2.454-.301 4.908-.451 7.412-.401.951 0 .951-1.503 0-1.503-2.454-.05-4.958.1-7.412.401-.951.15-.951 1.653 0 1.502zM7.261 81.273l7.06.15c.952 0 .952-1.502 0-1.502l-7.06-.15c-.951 0-.951 1.502 0 1.502zM6.76 77.868c2.154.15 4.257.1 6.36-.1.951-.1.951-1.602 0-1.502-2.103.25-4.257.25-6.36.1-.951-.1-.951 1.402 0 1.502zM7.11 68.254c2.605-.501 5.209-.752 7.913-.701.951 0 .951-1.503 0-1.503-2.804-.05-5.559.2-8.313.751-.901.2-.5 1.653.4 1.453zM6.96 64.598c2.805.05 5.61.05 8.463-.1.952-.05.952-1.552 0-1.502-2.804.15-5.608.2-8.462.1-1.002-.05-1.002 1.452 0 1.502zM5.909 60.692c3.105.1 6.21-.05 9.314-.35.952-.1.952-1.603 0-1.503-3.105.3-6.21.451-9.314.35-.951 0-.951 1.503 0 1.503zM22.634 59.29c7.762-1.152 15.574-1.703 23.386-1.602.951 0 .951-1.503 0-1.503-7.962-.1-15.924.45-23.786 1.653-.952.15-.551 1.602.4 1.452zM24.187 62.094c7.711-.65 15.473-1.051 23.235-1.302.951-.05.951-1.552 0-1.502-7.762.2-15.524.651-23.235 1.302-1.002.1-1.002 1.602 0 1.502zM23.586 65.45c8.012-.401 16.074.55 24.086-.301.952-.1.952-1.603 0-1.502-8.012.901-16.074-.1-24.086.3-.952.05-.952 1.552 0 1.502zM18.829 77.868c3.505 0 7.01-.05 10.516-.05.951 0 .951-1.502 0-1.502-3.506 0-7.011.05-10.516.05-1.002 0-1.002 1.502 0 1.502zM19.18 81.674c3.755-.1 7.56-.2 11.316-.25 1.052 0 11.067-.551 11.067-.451.3.901 1.753.55 1.452-.4-.3-1.052-1.202-.902-2.153-.902-2.303 0-4.607.1-6.91.15-4.908.1-9.865.25-14.773.35-1.001 0-1.001 1.503 0 1.503zM19.18 85.43c3.004.15 5.958.15 8.963.1.951-.05.951-1.553 0-1.502-3.005.1-5.96.05-8.964-.1-1.001-.05-1.001 1.452 0 1.502zM17.426 94.043c10.016-.651 20.08-.902 30.146-.751.952 0 .952-1.503 0-1.503-10.065-.15-20.08.1-30.146.751-.951.05-.951 1.553 0 1.503zM18.979 97.348l7.561-.15c.952 0 .952-1.503 0-1.503l-7.561.15c-.952 0-.952 1.503 0 1.503zM32.6 97.298c4.056-.401 8.162-.751 12.218-1.002.951-.05.951-1.552 0-1.502-4.106.25-8.162.6-12.219 1.001-.951.1-1.001 1.603 0 1.503zM18.278 102.155c8.212-.1 16.425-.35 24.637-.651.952-.05.952-1.552 0-1.502-8.212.35-16.425.55-24.637.65-.952 0-.952 1.503 0 1.503zM58.489 72.76c12.97-2.403 26.14-3.555 39.36-3.455-.25-.2-.501-.35-.702-.55 7.712 24.587 11.418 50.326 10.967 76.115 0 .951 1.502.951 1.502 0 .451-25.89-3.255-51.779-11.016-76.516-.1-.3-.401-.551-.701-.551-13.32-.1-26.64 1.051-39.76 3.505-1.002.15-.602 1.603.35 1.452z" transform="translate(-696 -158) translate(696 158) translate(125.19 17.026)"></path><path fill="#FFF" d="M31.748 107.513c.902 14.072-1.051 28.093-5.809 41.313-.3.901 1.102 1.302 1.453.4 4.757-13.37 6.76-27.541 5.858-41.713-.05-.951-1.552-1.001-1.502 0z" transform="translate(-696 -158) translate(696 158) translate(125.19 17.026)"></path><path fill="#FFF" d="M26.19 149.928c12.619 5.358 26.44 4.807 39.81 3.555 14.572-1.402 28.894-3.756 42.915-7.912.902-.25.551-1.703-.4-1.452-13.621 4.006-27.492 6.41-41.664 7.761-13.32 1.302-27.291 2.104-39.91-3.254-.851-.401-1.603.9-.751 1.302z" transform="translate(-696 -158) translate(696 158) translate(125.19 17.026)"></path><path fill="#F16F38" d="M43.816 111.67c-2.704 1.452-5.308 3.104-7.861 4.857-.501.35-.501 1.252.2 1.352 2.303.5 4.607.951 6.91 1.452.952.2 1.352-1.252.401-1.452-2.304-.5-4.607-.952-6.91-1.452.05.45.1.901.2 1.352 2.504-1.753 5.158-3.405 7.862-4.858.8-.4.05-1.702-.802-1.252zM55.484 107.062c-3.305 5.359-6.61 10.717-9.915 16.025-.5.801.801 1.602 1.302.75 3.305-5.357 6.61-10.715 9.915-16.023.5-.802-.801-1.553-1.302-.752zM57.788 118.43c2.954-.451 5.959-.902 8.913-1.352.952-.15.551-1.603-.4-1.453-2.955.451-5.96.902-8.914 1.353-.951.15-.55 1.602.4 1.452zM72.71 110.367h-.15c-.35-.05-.65.05-.851.351-.05.05-.05.1-.1.15-.15.2-.15.551 0 .751 1.151 1.703 3.856 2.104 5.708 2.504.35.1.701.15 1.052.25-.05.05-.15.1-.2.15 0 .351-1.603 1.553-1.903 1.804l-3.305 3.154c-.701.651.35 1.753 1.051 1.052 1.352-1.252 2.654-2.554 4.006-3.806.701-.7 2.104-1.602 1.803-2.754-.25-.951-1.302-1.052-2.153-1.302-1.352-.35-3.956-.55-4.807-1.853v.751c.05-.05.05-.1.1-.15-.3.1-.551.25-.852.35h.15c1.002.2 1.403-1.251.451-1.402z" transform="translate(-696 -158) translate(696 158) translate(125.19 17.026)"></path><path fill="#FFF" d="M62.445 77.818c2.604-.45 5.208-.6 7.862-.5.951.05.951-1.453 0-1.503-2.805-.1-5.559.1-8.263.601-.951.15-.55 1.552.4 1.402zM62.044 81.624c3.556-.35 7.11-.651 10.666-.901.952-.05.952-1.553 0-1.503-3.555.25-7.11.551-10.666.902-.951.1-.951 1.602 0 1.502zM63.647 87.282v.05c.25-.2.5-.35.7-.55h-.1c.2.1.451.25.651.35 0-.05-.05-.05-.05-.1-.05.3-.1.601-.1.901-.35.1-.3.15.2.1h.852c.5 0 1.001-.05 1.502-.05 1.002-.1 2.003-.2 3.005-.4.951-.15.55-1.603-.4-1.452-1.303.25-2.605.35-3.907.4-.801 0-1.753-.25-2.353.35-.25.251-.25.652-.1.902.2.3.45.45.8.45.301 0 .652-.25.702-.55v-.05c.25-.901-1.202-1.302-1.402-.35zM62.595 94.594c4.206-.601 8.413-1.403 12.67-1.252.95.05.95-1.453 0-1.503-4.407-.15-8.764.701-13.07 1.302-.952.15-.551 1.603.4 1.453zM78.92 76.216c4.807-.651 9.614-1.002 14.422-1.152.951-.05.951-1.552 0-1.502-4.858.15-9.665.5-14.422 1.151-.952.1-.952 1.603 0 1.503zM82.375 82.525c3.005-.5 5.96-.951 8.964-1.452.951-.15.55-1.602-.401-1.452-3.005.5-5.959.951-8.964 1.452-.951.15-.55 1.602.401 1.452zM83.377 91.289c2.553-.25 5.157-.351 7.761-.351.952 0 .952-1.502 0-1.502-2.604 0-5.158.1-7.761.35-.952.1-.952 1.603 0 1.503zM87.883 94.143c3.155-.45 6.26-.751 9.465-.952.951-.05.951-1.552 0-1.502-3.305.2-6.56.551-9.865 1.002-.952.15-.551 1.552.4 1.452z" transform="translate(-696 -158) translate(696 158) translate(125.19 17.026)"></path><path fill="#E8E8E8" d="M38.258 132.35c.952 0 .952-1.501 0-1.501-.951 0-.951 1.502 0 1.502z" transform="translate(-696 -158) translate(696 158) translate(125.19 17.026)"></path><path fill="#FFF" d="M36.656 130.999c1.252.4 2.453.25 3.755.2 1.703-.05 3.405.05 5.108.2.952.1.952-1.402 0-1.502-1.452-.15-2.954-.25-4.407-.2-1.302 0-2.754.3-4.006-.15-.951-.3-1.352 1.151-.45 1.452zM38.458 135.506c2.755-.25 5.509-.2 8.263.2.951.1.951-1.402 0-1.502-2.754-.35-5.508-.4-8.263-.2-.951.1-.951 1.602 0 1.502zM34.102 141.865c2.353.902 4.807.751 7.31.751h8.714c5.108 0 10.616.551 15.574-.951.901-.3.55-1.753-.4-1.452-4.808 1.502-10.216.901-15.174.901h-7.762c-2.654 0-5.358.25-7.912-.7-.901-.351-1.252 1.1-.35 1.451zM59.991 134.754c1.602-.1 3.205-.15 4.807-.25 1.603-.1 3.255-.35 4.758.3.9.351 1.302-1.101.4-1.452-1.452-.6-2.904-.45-4.457-.35l-5.558.3c-.951 0-.951 1.503.05 1.452zM53.782 148.425c8.062-.3 16.074-.75 24.136-1.402.952-.1.952-1.602 0-1.502-8.012.65-16.074 1.102-24.136 1.402-1.002.05-1.002 1.552 0 1.502zM143.468 5.358c2.253 23.736 1.752 47.572 1.252 71.358 0 .952 1.502.952 1.502 0 .55-23.786 1.001-47.622-1.252-71.358-.1-.951-1.602-.951-1.502 0z" transform="translate(-696 -158) translate(696 158) translate(125.19 17.026)"></path><path fill="#FFF" d="M144.269 5.909c10.165.45 20.13-2.404 30.196-3.505 10.215-1.102 20.53-1.102 30.746-.05.952.1.952-1.403 0-1.503C194.996-.2 184.681-.2 174.465.901c-10.066 1.102-20.03 3.956-30.196 3.506-1.002 0-1.002 1.502 0 1.502z" transform="translate(-696 -158) translate(696 158) translate(125.19 17.026)"></path><path fill="#FFF" d="M204.56 1.953c1.352 5.258 1.553 10.666 1.653 16.024.15 5.759.35 11.568.55 17.327.401 11.367.902 22.784 1.503 34.151.05.952 1.552.952 1.502 0-.6-11.717-1.151-23.435-1.552-35.153-.2-5.759-.35-11.517-.5-17.226-.151-5.208-.401-10.466-1.703-15.524-.25-.951-1.703-.55-1.453.401z" transform="translate(-696 -158) translate(696 158) translate(125.19 17.026)"></path><path fill="#FFF" d="M145.42 77.818c10.767 3.105 22.335 1.953 33.301.851 10.566-1.051 21.032-3.054 30.697-7.711.851-.4.1-1.703-.751-1.302-9.665 4.657-20.231 6.56-30.797 7.611-10.566 1.002-21.683 2.103-31.999-.901-1.001-.3-1.402 1.152-.45 1.452zM207.164 15.423c6.11-.951 12.32-1.251 18.529-.901 3.204.2 6.41.55 9.614 1.102 1.352.25 2.854.35 4.156.8 1.853.652 1.753 2.004 2.054 3.757 2.303 12.268 3.805 24.687 4.556 37.156.05.951 1.553.951 1.503 0-.451-7.06-1.102-14.121-2.003-21.132-.4-3.255-.902-6.51-1.453-9.765l-.9-5.258c-.251-1.502-.351-3.405-.952-4.757-.852-1.953-4.307-1.903-6.11-2.203-3.154-.551-6.31-.952-9.514-1.152-6.66-.45-13.27-.1-19.88.901-.952.15-.551 1.603.4 1.452z" transform="translate(-696 -158) translate(696 158) translate(125.19 17.026)"></path><path fill="#FFF" d="M188.336 77.217c.901 2.504 1.452 5.008 1.552 7.662.05 1.302-.15 2.854.801 3.906.952 1.051 2.604 1.051 3.906 1.252 2.104.3 4.257.55 6.36.65 9.765.551 19.53-.7 29.194-2.002.952-.1.952-1.653 0-1.503-8.262 1.102-16.525 2.204-24.888 2.103-1.902 0-3.805-.1-5.708-.25-1.252-.1-2.454-.25-3.706-.4-.851-.1-2.654-.05-3.305-.551-1.702-1.252-1.152-4.107-1.452-5.96-.25-1.852-.751-3.605-1.352-5.358-.3-.85-1.753-.5-1.402.451z" transform="translate(-696 -158) translate(696 158) translate(125.19 17.026)"></path><path fill="#FFF" d="M227.746 58.138c1.101 4.808 1.302 9.765 1.552 14.723.25 4.707.5 9.464.701 14.171.4 9.615.651 19.23.751 28.894 0 .951 1.502.951 1.502 0-.1-9.965-.4-19.88-.8-29.845-.401-9.315-.151-19.18-2.254-28.293-.2-1.002-1.653-.601-1.452.35z" transform="translate(-696 -158) translate(696 158) translate(125.19 17.026)"></path><path fill="#FFF" d="M228.747 59.04c10.466-.601 20.932-.451 31.348.4.951.1.951-1.402 0-1.502-10.416-.901-20.882-1.002-31.348-.4-.951.1-.951 1.602 0 1.502zM230.6 116.226c1.252 2.154 3.305 2.955 5.709 3.255 3.605.451 7.26.601 10.866.852 7.712.5 15.424.901 23.135.951 3.756 0 7.562-.05 11.317-.2l5.409-.3c.951-.05 2.604.1 3.455-.602.55-.45.6-1.101.7-1.802.201-1.953.151-3.956.201-5.91.15-3.955.25-7.911.4-11.867.05-.952-1.451-.952-1.501 0l-.3 9.364-.151 4.457c-.05.8-.05 1.652-.1 2.453-.05 1.402-.2 1.903-1.703 2.304-1.302.35-3.055.2-4.407.3-1.652.1-3.255.15-4.907.2-3.105.1-6.21.1-9.364.1-6.06-.05-12.169-.3-18.228-.7-3.105-.2-6.21-.4-9.364-.651-3.205-.25-8.012.2-9.865-2.955-.5-.851-1.803-.05-1.302.751z" transform="translate(-696 -158) translate(696 158) translate(125.19 17.026)"></path><path fill="#FFF" d="M256.69 36.856c2.754 9.464 3.355 18.979 3.805 28.794.501 10.015.952 19.98 1.453 29.995.05.952 1.552.952 1.502 0-.501-10.316-1.002-20.631-1.502-30.997-.451-9.614-1.152-18.879-3.856-28.193-.25-.901-1.653-.5-1.402.4z" transform="translate(-696 -158) translate(696 158) translate(125.19 17.026)"></path><path fill="#FFF" d="M262.298 96.847c5.859 2.053 12.068 2.404 18.178 2.954 6.36.601 12.418 1.252 18.778.2 6.36-1.05 12.67-2.303 18.979-3.755 5.759-1.352 11.067-3.305 15.674-7.06.75-.602-.3-1.653-1.052-1.052-4.757 3.856-10.466 5.608-16.375 6.96-5.859 1.352-11.718 2.504-17.626 3.456-6.21 1.001-12.169.3-18.378-.3-5.96-.602-12.069-.902-17.777-2.905-.902-.3-1.302 1.151-.4 1.502zM257.34 36.906c10.767-3.055 22.034-3.255 33.15-3.806 11.268-.6 22.385-.951 33.652-.1.951.05.951-1.452 0-1.502-11.568-.902-22.985-.45-34.553.15-10.966.55-22.033.851-32.65 3.856-.95.2-.55 1.652.402 1.402z" transform="translate(-696 -158) translate(696 158) translate(125.19 17.026)"></path><path fill="#FFF" d="M323.39 32.199c.151 9.514 1.403 18.979 3.105 28.343.852 4.757 1.853 9.464 2.905 14.171 1.001 4.657 1.853 9.365 3.455 13.821.3.902 1.753.501 1.452-.4-3.054-8.613-4.507-18.078-6.159-27.041-1.803-9.565-3.055-19.18-3.255-28.894-.05-.952-1.552-.952-1.502 0z" transform="translate(-696 -158) translate(696 158) translate(125.19 17.026)"></path><path fill="#0071AC" d="M149.527 13.57c.25 2.705.45 5.409.701 8.113.1.951 1.602.951 1.502 0-.25-2.704-.45-5.408-.7-8.112-.05-.952-1.553-.952-1.503 0z" transform="translate(-696 -158) translate(696 158) translate(125.19 17.026)"></path><path fill="#0071AC" d="M150.879 18.628c1.502-.4 3.005-.7 4.507-.901.951-.1.951-1.603 0-1.502-1.653.2-3.305.5-4.908.951-.901.25-.5 1.703.401 1.452z" transform="translate(-696 -158) translate(696 158) translate(125.19 17.026)"></path><path fill="#0071AC" d="M154.985 11.918c0 1.703 0 3.405.05 5.108 0 1.352-.15 2.754.25 4.056.301.901 1.753.55 1.453-.4-.4-1.353-.2-2.955-.2-4.307 0-1.502 0-2.955-.05-4.457 0-1.001-1.503-1.001-1.503 0zM159.642 12.57c1.953.3 3.906-.952 5.759-.351.901.3 1.302-1.152.4-1.453-2.002-.6-3.805.651-5.758.35-.901-.15-1.352 1.303-.4 1.453z" transform="translate(-696 -158) translate(696 158) translate(125.19 17.026)"></path><path fill="#0071AC" d="M162.296 12.369c.501 2.604.751 5.258.751 7.912 0 .951 1.503.951 1.503 0 0-2.804-.25-5.559-.802-8.313-.2-.951-1.652-.55-1.452.4zM169.407 10.666c-.15 3.506-.15 7.01-.1 10.516 0 .952 1.502.952 1.502 0-.05-3.505-.05-7.01.1-10.516 0-.951-1.502-.951-1.502 0z" transform="translate(-696 -158) translate(696 158) translate(125.19 17.026)"></path><path fill="#0071AC" d="M169.407 10.716c1.152 2.554 3.555 4.106 4.407 6.81.2.551 1.101.802 1.352.2 1.202-2.603 2.454-5.157 3.655-7.76-.45-.051-.901-.101-1.352-.201.751 3.956 1.503 7.962 2.204 11.918.2.951 1.602.55 1.452-.4-.751-3.957-1.502-7.963-2.203-11.919-.1-.6-1.102-.75-1.353-.2-1.201 2.604-2.453 5.158-3.655 7.762.45.05.901.1 1.352.2-.901-2.904-3.305-4.507-4.557-7.211-.4-.851-1.703-.1-1.302.801zM184.38 8.463c.75 4.206.951 8.363.7 12.619 0 .4.351.751.752.751 2.654 0 5.158-.45 7.662-1.352.901-.35.5-1.803-.401-1.452-2.354.851-4.757 1.302-7.261 1.302l.751.751c.25-4.407 0-8.713-.801-13.02-.15-.951-1.602-.55-1.402.4z" transform="translate(-696 -158) translate(696 158) translate(125.19 17.026)"></path><path fill="#FFF" d="M150.228 31.548c9.514-.701 19.079-1.002 28.643-.952.952 0 .952-1.502 0-1.502-9.564-.05-19.129.25-28.643.952-.951.05-.951 1.552 0 1.502zM150.478 38.008c2.154.05 4.357.15 6.51 0 2.003-.1 3.956-.501 5.96-.25.95.1.95-1.403 0-1.503-2.004-.25-3.957.15-5.96.25-2.153.1-4.356.05-6.51 0-1.001-.05-1.001 1.453 0 1.503zM150.428 42.264c3.606.2 7.161-.55 10.717 0 .951.15 1.352-1.302.4-1.452-3.705-.55-7.411.15-11.117-.05-1.001-.05-1.001 1.452 0 1.502zM151.28 51.829h9.814c.952 0 .952-1.503 0-1.503h-9.814c-.952 0-.952 1.503 0 1.503zM151.93 55.334h7.111c.952 0 .952-1.502 0-1.502h-7.11c-1.002 0-1.002 1.502 0 1.502zM150.478 60.892h10.016c.951 0 .951-1.502 0-1.502h-10.016c-1.001 0-1.001 1.502 0 1.502zM176.318 36.606H197.5c.951 0 .951-1.503 0-1.503h-21.182c-.952 0-.952 1.503 0 1.503zM176.818 42.515h13.771c.952 0 .952-1.503 0-1.503h-13.77c-.952 0-.952 1.503 0 1.503zM195.697 42.264h4.106c.952 0 .952-1.502 0-1.502h-4.106c-1.002 0-1.002 1.502 0 1.502zM178.27 51.929h16.576c.951 0 .951-1.502 0-1.502H178.27c-.952 0-.952 1.502 0 1.502zM172.362 58.74h14.522c.951 0 .951-1.503 0-1.503h-14.522c-1.002 0-1.002 1.502 0 1.502zM178.27 62.445h11.017c.952 0 .952-1.503 0-1.503h-11.016c-.952 0-.952 1.503 0 1.503zM192.192 58.489h10.516c.951 0 .951-1.503 0-1.503h-10.516c-1.002 0-1.002 1.503 0 1.503zM209.568 22.785h9.665c.951 0 .951-1.503 0-1.503h-9.665c-.951 0-.951 1.503 0 1.503zM222.187 19.93c2.504 1.052 5.308 1.002 7.712 2.254v-1.302c-1.753 1.252-3.505 2.503-5.208 3.755-.801.551-.05 1.853.751 1.302 1.753-1.252 3.505-2.503 5.208-3.755.4-.3.55-1.002 0-1.302-2.554-1.302-5.458-1.302-8.062-2.404-.902-.35-1.302 1.102-.4 1.452zM211.07 29.445c1.152.3 2.304.6 3.506.8.3.051 3.054.201 3.204.502-.15-.3-4.006 3.054-4.406 3.505-.651.701.4 1.753 1.051 1.052 1.202-1.252 2.504-2.304 4.006-3.205.752-.451 1.603-1.102 1.152-2.103-.45-.902-1.803-.752-2.654-.902-1.803-.25-3.605-.65-5.408-1.152-1.002-.2-1.402 1.252-.45 1.503zM210.77 42.164h15.473c.952 0 .952-1.502 0-1.502H210.77c-.952 0-.952 1.502 0 1.502zM226.444 37.307c1.051.55 2.153.901 3.305 1.201 1.201.351 3.255.651 4.006 1.803v-.751c-.501.851-1.503 1.602-2.204 2.304l-2.153 2.153c-.6.6.15 1.602.901 1.202.1-.05.25-.15.351-.2.851-.501.1-1.753-.751-1.303-.1.05-.25.15-.35.2l.9 1.202c.852-.85 1.753-1.702 2.605-2.603.7-.702 1.552-1.302 2.003-2.154.15-.25.15-.55 0-.75-1.553-2.405-5.509-2.354-7.862-3.556-.852-.501-1.603.8-.751 1.252zM210.67 50.727h10.866c.952 0 .952-1.502 0-1.502H210.67c-.952 0-.952 1.502 0 1.502zM227.746 50.376h11.617c.952 0 .952-1.502 0-1.502h-11.617c-1.002 0-1.002 1.502 0 1.502zM212.022 60.642h11.868c.951 0 .951-1.502 0-1.502h-11.868c-1.002 0-1.002 1.502 0 1.502zM195.697 79.27h18.378c.951 0 .951-1.502 0-1.502h-18.378c-1.002 0-1.002 1.502 0 1.502zM202.557 84.578h16.576c.951 0 .951-1.502 0-1.502h-16.576c-.951 0-.951 1.502 0 1.502zM250.43 66.851c-2.654-2.854-6.06 3.706-6.41 5.659-.45 2.604.2 5.258.902 7.762.55 2.053 1.101 3.806.3 5.909-.7 1.752-2.103 3.355-3.806 4.106-.65.3-.35 1.452.401 1.402 6.06-.6 4.357 10.967 5.909 14.672 1.502 3.506 4.957 5.158 8.613 4.557.951-.15.55-1.602-.4-1.452-7.812 1.252-7.412-7.411-8.113-12.519-.45-3.155-2.203-7.16-6.06-6.76.151.45.251.951.402 1.402 3.154-1.402 5.508-5.308 4.907-8.763-.45-2.754-1.602-5.308-1.703-8.113-.05-1.151.1-2.353.501-3.455.15-.35 2.454-4.407 3.455-3.305.701.701 1.753-.4 1.102-1.102zM274.316 98.5c-1.252 1.352-.851 2.954-.15 4.556.601 1.352 2.053 2.955 2.003 4.457 0 2.754-3.205 4.006-5.308 4.807-.901.351-.5 1.803.4 1.453 2.504-.952 5.309-2.154 6.16-4.958.35-1.051.25-2.103-.15-3.105-.601-1.552-3.506-4.506-1.903-6.159.701-.701-.4-1.753-1.052-1.052z" transform="translate(-696 -158) translate(696 158) translate(125.19 17.026)"></path><path fill="#EC615B" d="M282.629 56.736c-7.812-3.205-15.223 3.355-14.071 11.468 1.151 8.012 10.566 9.714 15.072 3.305.551-.802-.75-1.553-1.302-.752-1.852 2.604-4.957 4.057-8.112 2.955-3.105-1.102-4.356-4.207-4.356-7.361 0-6.56 6.31-10.566 12.318-8.163.952.35 1.352-1.101.45-1.452zM292.844 63.747c2.705-.25 5.509-.701 8.263-.601.951.05.951-1.452 0-1.502-2.754-.1-5.558.35-8.263.6-.951.05-.951 1.553 0 1.503z" transform="translate(-696 -158) translate(696 158) translate(125.19 17.026)"></path><path fill="#EC615B" d="M296.15 57.738c.35 3.455.5 6.91.45 10.365 0 .952 1.502.952 1.502 0 .05-3.455-.1-6.91-.45-10.365-.1-.952-1.603-.952-1.503 0zM306.515 60.892c2.504.35 5.058.25 7.562.15.951-.05.951-1.552 0-1.502-2.404.1-4.808.25-7.161-.1-.952-.1-1.402 1.352-.4 1.452z" transform="translate(-696 -158) translate(696 158) translate(125.19 17.026)"></path><path fill="#EC615B" d="M309.92 55.084c.15 3.906.25 7.811.4 11.767.051.952 1.553.952 1.503 0-.15-3.905-.25-7.811-.4-11.767-.05-.952-1.553-.952-1.503 0z" transform="translate(-696 -158) translate(696 158) translate(125.19 17.026)"></path><path fill="#FFF" d="M370.062 113.072c-2.404 21.582-.701 43.415 4.957 64.347.25.952 1.703.551 1.452-.4-5.658-20.832-7.31-42.515-4.907-63.947.1-.952-1.402-.952-1.502 0z" transform="translate(-696 -158) translate(696 158) translate(125.19 17.026)"></path><path fill="#FFF" d="M371.464 113.322c13.17.901 27.04 2.954 40.06-.4.952-.251.551-1.703-.4-1.453-12.82 3.355-26.59 1.252-39.66.35-1.002-.05-1.002 1.453 0 1.503z" transform="translate(-696 -158) translate(696 158) translate(125.19 17.026)"></path><path fill="#FFF" d="M410.523 112.32c-1.653 19.13 3.105 38.409 13.42 54.583.501.802 1.803.05 1.302-.75-10.165-15.975-14.822-34.954-13.22-53.833.1-.951-1.402-.951-1.502 0z" transform="translate(-696 -158) translate(696 158) translate(125.19 17.026)"></path><path fill="#FFF" d="M376.12 177.87c7.662 2.804 17.127 1.402 24.889-.35 8.312-1.903 16.274-5.309 23.385-9.966.801-.5.05-1.802-.751-1.302-6.81 4.457-14.272 7.712-22.184 9.615-7.711 1.853-17.276 3.355-24.938.55-.901-.35-1.302 1.102-.4 1.453zM380.377 121.635c-2.754 1.902-5.258 4.006-7.611 6.36-.451.45-.15 1.301.55 1.301 3.706-.1 7.462-.2 11.167-.25.952 0 .952-1.502 0-1.502-3.705.1-7.46.2-11.166.25.2.45.35.851.55 1.302 2.254-2.254 4.657-4.307 7.311-6.11.752-.55 0-1.902-.8-1.351zM387.338 123.688c3.906-.3 7.762-.25 11.617.15.952.1.952-1.402 0-1.502-3.855-.401-7.761-.451-11.617-.15-.952.05-.952 1.552 0 1.502z" transform="translate(-696 -158) translate(696 158) translate(125.19 17.026)"></path><path fill="#FFF" d="M399.456 121.284c2.404.55 4.757 1.252 7.111 2.103-.1-.4-.2-.851-.35-1.252-1.603 1.252-3.155 2.554-4.658 3.956-.7.651.35 1.703 1.052 1.052 1.502-1.352 3.055-2.704 4.657-3.956.5-.4.15-1.102-.35-1.252-2.304-.901-4.658-1.602-7.111-2.103-.902-.2-1.302 1.202-.35 1.452zM373.567 138.56c2.203.15 4.357.25 6.56.4.951.051.951-1.451 0-1.501-2.203-.15-4.357-.25-6.56-.401-.952-.05-.952 1.452 0 1.502zM384.684 138.56c6.16-.951 12.318-1.903 18.428-2.854.951-.15.55-1.602-.4-1.452-6.16.951-12.32 1.903-18.429 2.854-.951.15-.55 1.603.4 1.452zM374.669 143.468h4.707c.951 0 .951-1.503 0-1.503h-4.707c-.952 0-.952 1.503 0 1.503zM375.02 147.123c1.802.15 3.555 0 5.257-.4.952-.2.55-1.653-.4-1.453-1.603.351-3.205.451-4.858.351-.951-.1-.951 1.402 0 1.502zM374.468 153.633c6.66-.7 13.971-.7 20.331-2.904.902-.3.5-1.753-.4-1.452-6.26 2.153-13.42 2.153-19.93 2.854-.952.1-.952 1.602 0 1.502zM386.637 145.27c6.91-.75 13.77-1.953 20.53-3.605.952-.25.552-1.703-.4-1.452-6.61 1.652-13.32 2.804-20.13 3.555-.952.1-.952 1.603 0 1.502zM376.12 159.792c1.553.15 3.055.05 4.558-.35.951-.25.55-1.703-.4-1.452-1.353.35-2.755.45-4.157.3-.952-.1-.952 1.402 0 1.502zM387.288 158.19c2.253.25 4.406-.4 6.61-.901 2.704-.601 5.408-1.202 8.062-1.803.951-.2.55-1.653-.4-1.452-2.354.55-4.758 1.051-7.111 1.602-2.354.5-4.758 1.302-7.161 1.052-.952-.15-.952 1.352 0 1.502zM384.233 160.894c-1.252.35-2.253 1.202-2.554 2.504-.1.5-.05 1.102.1 1.602.15.401 2.254 3.055 1.152 3.355-.45.1-.751.702-.45 1.102 1.201 1.653 1.051 4.056 2.854 5.308 1.152.801 2.403.852 3.455-.1.701-.65-.35-1.703-1.052-1.052-1.802 1.703-3.255-3.905-3.956-4.907-.15.35-.3.751-.45 1.102.901-.25 1.402-.751 1.502-1.703.25-1.552-3.405-4.907-.2-5.759.951-.25.55-1.702-.4-1.452zM388.089 167.404c4.507-.2 8.964-.55 13.42-1.052.952-.1.952-1.602 0-1.502-4.456.5-8.913.851-13.42 1.052-.951.05-.951 1.552 0 1.502zM404.414 159.442c.4.05 1.051-.1 1.452 0 2.153.6 1.252 1.102 1.402 2.203.1.852 0 1.603.25 2.454.25.901.752 1.753 1.052 2.654.45 1.302.5 1.552-.45 2.704-.902 1.052-.902 1.052-2.104 1.252-.951.15-.55 1.602.4 1.452 1.503-.25 3.005-.801 3.706-2.253.802-1.703-.05-3.355-.7-4.958-.501-1.202-.702-2.303-.652-3.605 0-.701.1-1.452-.2-2.103-.851-1.753-2.604-1.102-4.156-1.302-.952-.1-.952 1.402 0 1.502z" transform="translate(-696 -158) translate(696 158) translate(125.19 17.026)"></path></g><g fill="#E8E8E8"><path d="M4.006 87.633c2.754 19.53 5.008 39.11 6.86 58.74.1.95 1.603.95 1.503 0-1.853-19.78-4.157-39.46-6.91-59.14-.15-.952-1.553-.551-1.453.4z" transform="translate(-696 -158) translate(696 158) translate(0 283.43)"></path><path d="M10.917 147.173c16.124 8.013 35.303 8.163 51.578.551.851-.4.1-1.702-.751-1.302-15.774 7.411-34.503 7.161-50.076-.55-.852-.451-1.603.85-.751 1.301z" transform="translate(-696 -158) translate(696 158) translate(0 283.43)"></path><path d="M63.597 88.735c-.05 19.48-.451 38.909-1.252 58.338-.05.952 1.452.952 1.502 0 .801-19.43 1.202-38.909 1.252-58.338 0-.952-1.502-.952-1.502 0z" transform="translate(-696 -158) translate(696 158) translate(0 283.43)"></path><path d="M4.407 87.883c19.53 5.91 40.11 3.806 60.04 1.553.952-.1.952-1.603 0-1.503-19.83 2.204-40.21 4.357-59.64-1.502-.901-.3-1.302 1.152-.4 1.452zM11.818 139.712c1.703-3.405 5.558 1.402 6.91 2.604 1.252 1.102 2.705 1.753 4.407 1.652 4.206-.2 7.762-4.356 12.068-3.305 4.207 1.052 6.41 5.359 11.217 4.908 5.409-.5 10.917-6.91 16.425-3.706.852.501 1.603-.8.752-1.302-5.258-3.054-10.116 1.352-15.023 3.005-3.756 1.252-6.21-.2-9.164-2.304-1.803-1.252-3.656-2.353-5.96-2.203-5.257.3-9.664 6.16-14.471 1.452-1.402-1.402-2.554-2.904-4.657-3.255-1.603-.25-3.055.25-3.806 1.703-.45.851.851 1.602 1.302.751zM10.416 131.049c17.276 4.707 35.554 4.407 52.63-1.002.901-.3.55-1.752-.4-1.452-16.826 5.308-34.854 5.609-51.83 1.002-.951-.25-1.352 1.151-.4 1.452zM7.962 113.622c18.378 4.507 37.707 4.107 55.835-1.251.901-.25.55-1.703-.4-1.453-17.928 5.308-36.907 5.709-55.034 1.252-.952-.25-1.352 1.202-.4 1.452zM7.11 100.603c3.005-2.254 5.96 1.051 8.263 2.704 1.803 1.302 3.756 1.953 5.96 1.702 4.556-.6 8.913-5.308 13.67-4.106 2.604.651 4.257 3.205 6.91 3.656 2.004.35 3.856-.601 5.459-1.653 2.704-1.702 4.907-3.054 8.262-2.804 3.055.2 5.91.951 9.014.45.952-.15.55-1.602-.4-1.452-3.456.501-6.81-.7-10.266-.55-2.504.1-4.457 1.101-6.51 2.503-1.152.751-2.303 1.653-3.656 1.953-2.053.501-3.605-.7-5.157-1.802-1.803-1.252-3.606-2.154-5.91-1.903-4.656.45-8.913 5.208-13.72 4.206-4.156-.851-7.962-7.762-12.77-4.206-.65.6.1 1.903.852 1.302z" transform="translate(-696 -158) translate(696 158) translate(0 283.43)"></path><path d="M17.877 88.935c-2.303-2.354-9.464-10.065-5.508-13.37.25-.2.3-.651.1-.902-3.105-4.456-6.51-9.214-6.86-14.822-.15-2.454.9-4.407 1.101-6.71.2-2.204-.951-4.657-1.502-6.76C2.504 35.453.6 23.535 1.653 12.268c.25-2.755.75-5.609 1.852-8.163 2.104-5.007 6.36-.4 8.163 2.103 3.004 4.207 5.057 8.964 6.81 13.821 3.756 10.466 6.76 21.233 9.214 32.1 2.854 12.618 4.807 25.438 5.909 38.357.1.952 1.602.952 1.502 0C34.002 77.768 32.1 65.15 29.345 52.68c-2.705-12.369-6.06-24.888-10.767-36.606-1.903-4.707-4.256-9.965-8.012-13.52-2.804-2.704-6.61-3.205-8.313.801C.1 8.363-.1 14.071.05 19.48c.2 6.46.901 12.97 2.053 19.329.651 3.505 1.402 6.96 2.304 10.366.55 2.053.951 3.555.35 5.558-.45 1.402-.65 2.854-.65 4.357 0 6.21 3.655 11.567 7.06 16.425.05-.3.1-.601.1-.902-4.907 4.157 2.554 12.57 5.508 15.524.752.5 1.803-.551 1.102-1.202z" transform="translate(-696 -158) translate(696 158) translate(0 283.43)"></path><path d="M29.645 49.826c.45-4.407.901-8.864 2.504-13.02.951-2.454 2.303-4.457 3.956-6.46 1.152-1.402 1.953-2.854 3.004-4.306 3.055-4.307 5.96.45 6.51 3.555.45 2.754.651 5.558.751 8.363.2 5.408-.1 10.866-.901 16.224-.1.801.901 1.352 1.352.601 1.152-1.853 4.707-5.759 6.46-1.602.55 1.302.2 3.205.15 4.557-.2 3.855-.55 7.661-1.102 11.467-1.001 6.96-2.654 13.871-4.857 20.581-.3.902 1.152 1.302 1.452.4 3.155-9.764 5.158-19.88 5.86-30.095.2-2.854 1.301-8.212-2.104-9.815-3.105-1.452-5.709 1.402-7.211 3.756l1.352.6c1.002-6.81 1.302-13.62.701-20.48-.35-3.756-.7-11.818-6.41-11.267-2.103.2-3.154 2.053-4.156 3.655-1.552 2.604-3.806 4.607-5.208 7.311-2.604 4.958-3.155 10.616-3.705 16.075 0 .851 1.502.851 1.602-.1zM4.557 3.105C15.323 31.348 21.132 61.043 26.84 90.587c.2.952 1.652.551 1.452-.4-5.709-29.545-11.518-59.29-22.284-87.483-.35-.901-1.803-.5-1.452.4z" transform="translate(-696 -158) translate(696 158) translate(0 283.43)"></path><path d="M3.856 45.419c7.31 4.256 13.17 10.366 17.126 17.827.45.851 1.753.1 1.302-.751-4.056-7.662-10.166-14.021-17.627-18.378-.901-.5-1.652.801-.801 1.302zM17.527 16.475c-.902 8.363-1.703 16.775-.701 25.138.1.952 1.602.952 1.502 0-1.002-8.413-.2-16.775.7-25.138.101-.951-1.401-.951-1.501 0zM41.513 24.537c-1.152 21.032-2.253 42.114-3.405 63.146-.05.952 1.452.952 1.502 0 1.152-21.032 2.254-42.114 3.405-63.146.05-1.001-1.452-1.001-1.502 0z" transform="translate(-696 -158) translate(696 158) translate(0 283.43)"></path><path d="M28.293 48.974c2.604 8.463 5.859 16.676 9.815 24.588.45.85 1.752.1 1.302-.752-3.906-7.811-7.111-15.924-9.665-24.236-.3-.902-1.753-.551-1.452.4zM39.76 80.923c5.659-3.205 10.266-7.762 13.57-13.37.502-.852-.8-1.603-1.301-.752-3.155 5.409-7.612 9.765-13.02 12.82-.851.5-.1 1.752.751 1.302zM4.958 88.184c3.004-.2 7.711-1.252 9.915 1.452l.9-1.202c-1.952-1.051-4.005-1.752-6.208-2.153-.15.5-.25.951-.401 1.452 2.404.4 4.757.952 7.11 1.653.952.3 1.303-1.152.401-1.453-2.353-.7-4.707-1.251-7.11-1.652-.952-.15-1.353 1.252-.401 1.452 2.103.4 3.956 1.052 5.859 2.003.801.4 1.452-.55.901-1.202-2.554-3.154-7.461-2.103-10.966-1.903-.952.1-.952 1.603 0 1.553zM49.776 88.735c-.1-.501 6.059-.2 6.41-.15 2.102.1 4.256.2 6.359.25v-1.502c-3.956.2-7.912.4-11.868.55-.952.05-.952 1.453 0 1.503 2.203.1 4.407.15 6.61.1.951 0 .951-1.502 0-1.502-2.203.05-4.407.05-6.61-.1v1.502c3.956-.2 7.912-.401 11.868-.551.951-.05.951-1.452 0-1.502-3.856-.15-7.862-.651-11.718-.501-1.452.05-2.854.55-2.454 2.303.15.952 1.603.551 1.403-.4zM110.267 215.828c7.512-9.415 14.973-18.779 22.484-28.193 6.86-8.563 13.721-17.176 21.733-24.688.702-.65-.35-1.702-1.051-1.051-8.012 7.561-14.873 16.124-21.733 24.687-7.512 9.414-14.973 18.779-22.484 28.193-.601.751.45 1.803 1.051 1.052z" transform="translate(-696 -158) translate(696 158) translate(0 283.43)"></path><path d="M153.433 162.647H398.304c.952 0 .952-1.502 0-1.502H153.433c-1.002 0-1.002 1.502 0 1.502z" transform="translate(-696 -158) translate(696 158) translate(0 283.43)"></path><path d="M398.054 162.797c17.877 18.378 34.703 37.707 50.326 57.988.601.751 1.903 0 1.302-.751-15.723-20.381-32.599-39.86-50.576-58.289-.651-.7-1.753.351-1.052 1.052zM28.143 168.355h69.806c.951 0 .951-1.502 0-1.502H28.143c-.952 0-.952 1.502 0 1.502zM158.54 138.06h325.244c.952 0 .952-1.503 0-1.503H158.541c-.952 0-.952 1.503 0 1.503zM592.745 138.71c.952 0 .952-1.502 0-1.502h-76.01c-.952 0-.952 1.503 0 1.503h76.01zM427.198 160.443h57.938c.952 0 .952-1.502 0-1.502h-57.938c-.951 0-.951 1.502 0 1.502zM513.43 166.352h44.116c.952 0 .952-1.502 0-1.502H513.43c-.951 0-.951 1.502 0 1.502z" transform="translate(-696 -158) translate(696 158) translate(0 283.43)"></path></g><g fill="#161616"><path d="M86.882 1.853h54.533c.951 0 .951-1.502 0-1.502H86.882c-1.002 0-1.002 1.502 0 1.502zM138.16 8.363h136.357c.951 0 .951-1.503 0-1.503H138.16c-.952 0-.952 1.503 0 1.503zM244.02 1.853h184.43c.952 0 .952-1.502 0-1.502H244.02c-.951 0-.951 1.502 0 1.502zM428.45 11.618h129.897c.952 0 .952-1.503 0-1.503H428.45c-.951 0-.951 1.503 0 1.503zM1.152 62.895h40.912c.951 0 .951-1.502 0-1.502H1.152c-1.002 0-1.002 1.502 0 1.502zM349.23 53.832h59.09c.951 0 .951-1.503 0-1.503h-59.09c-1.002 0-1.002 1.503 0 1.503zM505.066 55.735h53.231c.952 0 .952-1.503 0-1.503h-53.23c-.952 0-.952 1.503 0 1.503z" transform="translate(-696 -158) translate(696 158) translate(19.53 418.635)"></path></g></g><g><g><path fill="#FFF" d="M23.185 48.323v190.74c4.407-.45 8.763-.902 13.17-1.402V46.92c-4.356.45-8.763.902-13.17 1.402zM404.013 50.376c-.1 62.445-.25 124.84-.35 187.285h12.819V48.624c-4.106.6-8.262 1.202-12.469 1.752z" transform="translate(-696 -158) translate(696 158) translate(43.065 117.679) translate(11.017 126.192)"></path><path fill="#000" d="M88.084 175.566c-.501-26.89-.651-54.432-.35-82.525.2-18.077.55-35.854 1.05-53.43-5.307-.101-10.615-.251-15.974-.351-.1 45.218-.25 90.387-.35 135.605 5.208.25 10.416.501 15.624.701zM353.036 42.414c.1 44.167.25 88.334.35 132.501 4.758-.1 9.465-.25 14.222-.35l1.051-134.554c-5.207.75-10.415 1.602-15.623 2.403z" transform="translate(-696 -158) translate(696 158) translate(43.065 117.679) translate(11.017 126.192)"></path><path fill="#000" d="M1.703 44.467c-.1 3.706-.25 7.412-.35 11.117 143.567.25 287.185.451 430.753.701-.35-3.906-.701-7.862-1.052-11.767-46.52-2.054-94.043-3.456-142.566-4.157-99.451-1.502-195.146.1-286.785 4.106z" transform="translate(-696 -158) translate(696 158) translate(43.065 117.679) translate(11.017 126.192)"></path><path fill="#FFF" d="M1.703 44.117c143.117.1 286.234.25 429.401.35-15.273-14.471-30.546-28.893-45.77-43.365-115.474.1-231 .25-346.475.35C26.44 15.674 14.071 29.895 1.703 44.117z" transform="translate(-696 -158) translate(696 158) translate(43.065 117.679) translate(11.017 126.192)"></path><path fill="#161616" d="M1.753 45.118C14.12 30.346 26.84 15.874 39.96 1.753 40.61 1.052 39.56 0 38.909.7 25.789 14.822 13.069 29.244.701 44.067c-.6.7.45 1.803 1.052 1.051z" transform="translate(-696 -158) translate(696 158) translate(43.065 117.679) translate(11.017 126.192)"></path><path fill="#161616" d="M.4 45.118v9.365c0 .951 1.503.951 1.503 0v-9.365c0-.951-1.502-.951-1.502 0zM2.404 56.486h429.151c.951 0 .951-1.503 0-1.503H2.404c-1.002 0-1.002 1.503 0 1.503z" transform="translate(-696 -158) translate(696 158) translate(43.065 117.679) translate(11.017 126.192)"></path><path fill="#161616" d="M432.907 55.084V43.867c0-.952-1.502-.952-1.502 0v11.217c0 1.001 1.502 1.001 1.502 0zM1.152 56.486c.951 0 .951-1.503 0-1.503-.952 0-1.002 1.503 0 1.503z" transform="translate(-696 -158) translate(696 158) translate(43.065 117.679) translate(11.017 126.192)"></path><path fill="#161616" d="M1.753 45.269h429.151c.951 0 .951-1.503 0-1.503H1.753c-.952 0-.952 1.503 0 1.503zM40.361 2.303h345.024c.951 0 .951-1.502 0-1.502H40.36c-.951 0-.951 1.502 0 1.502z" transform="translate(-696 -158) translate(696 158) translate(43.065 117.679) translate(11.017 126.192)"></path><path fill="#161616" d="M384.634 2.354c15.173 14.07 30.396 28.192 45.569 42.264.7.65 1.753-.4 1.051-1.052-15.173-14.071-30.396-28.193-45.569-42.264-.7-.651-1.752.4-1.051 1.052zM22.835 55.735V238.262c0 .951 1.502.951 1.502 0V96.146 55.735c0-1.002-1.502-1.002-1.502 0zM35.904 56.335V237.61c0 .952 1.503.952 1.503 0V96.397v-40.06c0-.952-1.503-.952-1.503 0z" transform="translate(-696 -158) translate(696 158) translate(43.065 117.679) translate(11.017 126.192)"></path><path fill="#161616" d="M23.586 239.714c3.956-.25 7.862-.501 11.818-.701.951-.05.951-1.553 0-1.503-3.956.25-7.862.501-11.818.702-.952.1-1.002 1.602 0 1.502zM402.761 55.735V238.262c0 .951 1.502.951 1.502 0V96.146 55.735c0-1.002-1.502-1.002-1.502 0zM415.831 56.335V237.61c0 .952 1.502.952 1.502 0V96.397v-40.06c0-.952-1.502-.952-1.502 0z" transform="translate(-696 -158) translate(696 158) translate(43.065 117.679) translate(11.017 126.192)"></path><path fill="#161616" d="M404.113 238.712c3.956-.25 7.862-.5 11.818-.7.952-.05.952-1.553 0-1.503-3.956.25-7.862.5-11.818.701-.951.05-.951 1.552 0 1.502zM72.21 56.436v117.929c0 .951 1.502.951 1.502 0V56.435c0-.95-1.502-.95-1.502 0zM87.182 57.137v117.228c0 .951 1.503.951 1.503 0V57.137c0-.952-1.503-.952-1.503 0z" transform="translate(-696 -158) translate(696 158) translate(43.065 117.679) translate(11.017 126.192)"></path><path fill="#161616" d="M73.612 175.817h14.321c.952 0 .952-1.502 0-1.502H73.612c-.952 0-.952 1.502 0 1.502zM353.036 55.785v118.58c0 .951 1.502.951 1.502 0V55.785c0-.952-1.502-1.002-1.502 0zM367.307 57.137v117.228c0 .951 1.503.951 1.503 0V57.137c0-.952-1.503-.952-1.503 0z" transform="translate(-696 -158) translate(696 158) translate(43.065 117.679) translate(11.017 126.192)"></path><path fill="#161616" d="M354.438 175.817h13.62c.952 0 .952-1.502 0-1.502h-13.62c-.952 0-.952 1.502 0 1.502z" transform="translate(-696 -158) translate(696 158) translate(43.065 117.679) translate(11.017 126.192)"></path></g><g><path fill="#FFF" d="M3.305 3.455C2.454 4.557 2.253 5.71 2.153 6.71c-1.101 8.012-.7 14.072-.7 14.072.2 3.004.4 7.46.55 13.17 2.153 2.253 4.206 3.154 5.508 3.605 3.756 1.252 7.311.4 14.222-1.352 2.804-.701 5.008-1.402 6.51-1.903 1.102-2.053 1.452-3.806 1.552-4.957.2-2.454-.55-3.606.35-4.858.902-1.252 2.204-1.001 2.805-2.353.35-.802.3-2.003-.25-2.454-.952-.651-2.654 1.051-3.506.35-.25-.2-.25-.4-.35-2.253-.15-2.504-.2-2.804.1-3.055.25-.3 1.102-.3 2.704-.25 1.202 0 1.753 0 2.003.2.952.751.55 3.205-.35 4.958-1.152 2.203-2.905 2.904-2.705 3.355.25.45 2.454 0 4.257-1.102 1.051-.65 2.604-1.552 2.954-3.255.601-2.504-1.802-4.707-2.153-5.057-2.954-2.755-7.26-1.853-7.812-1.703.05-2.404.1-4.807.2-7.21-6.46-2.855-11.867-3.506-15.223-3.606-7.06-.25-8.913 1.552-9.514 2.403z" transform="translate(-696 -158) translate(696 158) translate(43.065 117.679) translate(310.972 115.676)"></path><path fill="#161616" d="M1.102 5.709C.35 14.923.25 24.087.802 33.3c.05.951 1.552.951 1.501 0-.55-9.214-.45-18.428.301-27.592.1-.952-1.402-.952-1.502 0z" transform="translate(-696 -158) translate(696 158) translate(43.065 117.679) translate(310.972 115.676)"></path><path fill="#161616" d="M.901 33.701c6.71 7.411 17.176 5.108 25.339 1.953.901-.35.5-1.803-.4-1.452-7.662 2.954-17.577 5.458-23.887-1.552C1.302 31.948.25 33 .901 33.7zM2.554 5.659c1.953-3.556 8.563-3.906 12.168-3.806 4.307.1 8.413 1.252 12.219 3.305.851.45 1.602-.851.751-1.302C23.235 1.402 18.178.15 13.07.35c-3.856.15-9.715.8-11.818 4.556-.45.852.851 1.603 1.302.752z" transform="translate(-696 -158) translate(696 158) translate(43.065 117.679) translate(310.972 115.676)"></path><path fill="#161616" d="M27.091 5.308v6.76c0 .501.5.802.952.701 2.503-.55 6.46 0 7.912 2.454 2.854 4.707-2.705 5.709-5.559 7.612-1.252.8-1.452 1.652-1.452 3.104 0 3.255 0 7.011-3.355 8.664-.851.45-.1 1.702.751 1.301 2.954-1.452 3.906-4.506 4.056-7.611.05-1.402-.4-3.005.701-4.156.551-.551 1.653-.802 2.354-1.152 1.502-.701 2.904-1.452 3.906-2.804 1.903-2.554.851-5.208-1.402-7.061-2.354-1.903-5.409-2.454-8.313-1.853.3.25.65.5.951.701v-6.76c-.05-.851-1.552-.851-1.502.1z" transform="translate(-696 -158) translate(696 158) translate(43.065 117.679) translate(310.972 115.676)"></path><path fill="#161616" d="M28.243 14.772c-.2 1.853-.1 3.706.3 5.509.2.951 1.653.55 1.453-.4-.351-1.703-.451-3.406-.25-5.109.1-.951-1.403-.951-1.503 0z" transform="translate(-696 -158) translate(696 158) translate(43.065 117.679) translate(310.972 115.676)"></path><path fill="#161616" d="M29.395 16.275c.75-.651 1.852-1.102 2.854-.802.951.3 1.703 1.403 1.252 2.404-.651 1.352-2.854 1.352-4.156 1.352-.952 0-.952 1.502 0 1.502 2.353.05 6.159-.65 5.758-3.855-.15-1.302-1.202-2.454-2.453-2.855-1.553-.45-3.155.15-4.357 1.202-.701.601.35 1.653 1.102 1.052zM6.86 3.305c-1.001.801-2.654.4-2.804 2.103-.15 1.352 1.002 2.304 2.153 2.554 2.604.55 5.81-.1 8.513-.05 3.205.05 6.46.3 9.665.651.4.05.751-.4.751-.751 0-.851 0-.902-.45-1.653-.501-.8-1.803-.05-1.303.751.1.3.15.601.25.902l.752-.751c-3.856-.451-7.712-.651-11.568-.651-.951 0-1.953 0-2.904.05-.701 0-2.153.4-2.754.1-.3-.45-.651-.901-.952-1.352.25-.05.551-.1.802-.2.25-.2.7-.401.951-.601.751-.651-.35-1.703-1.102-1.102z" transform="translate(-696 -158) translate(696 158) translate(43.065 117.679) translate(310.972 115.676)"></path><path fill="#4C4C4C" d="M15.824 1.252c-.2-.701-4.457-.4-8.313.801-2.203.651-3.956 1.552-5.157 2.153-.401 5.509-.651 11.217-.802 17.227-.1 4.256-.1 8.412 0 12.468 1.402 1.052 4.808 3.356 9.715 3.756 3.305.25 5.96-.45 7.511-1.001L16.225 7.36c-4.006-.05-7.161-.4-7.311-1.402-.3-1.552 7.21-3.756 6.91-4.707z" opacity=".09" transform="translate(-696 -158) translate(696 158) translate(43.065 117.679) translate(310.972 115.676)"></path><path fill="#4C4C4C" d="M2.554 7.361c2.103 6.66 4.306 13.42 6.51 20.18 1.101 3.406 2.253 6.761 3.355 10.116-1.402-.05-3.656-.3-6.11-1.402-2.103-.901-3.605-2.103-4.556-2.954-.3-4.407-.451-9.315-.2-14.623.2-4.056.55-7.862 1-11.317z" opacity=".11" transform="translate(-696 -158) translate(696 158) translate(43.065 117.679) translate(310.972 115.676)"></path></g><g><path fill="#FFF" d="M329.3 36.355c-.45 2.304-1.002 5.709-1.603 9.865-1.853 13.67-1.802 24.287-1.752 32.55.05 6.059.3 13.92 1.051 23.185 2.404.851 6.31 2.153 11.267 3.355 8.563 2.103 13.57 2.303 27.793 4.206 8.763 1.202 6.71 1.102 14.421 2.103 11.368 1.503 18.529 2.454 27.592 2.654 4.157.1 9.965.05 17.076-.55 1.252-5.459 2.604-12.37 3.506-20.381.25-2.003 1.201-11.117 1.051-23.536-.1-7.962-.701-17.977-2.454-29.545-1.903-.45-4.557-1.102-7.711-1.753-3.756-.8-16.876-3.455-34.803-4.556-18.979-1.202-33.501-.05-38.308.35-7.01.55-12.82 1.352-17.126 2.053zM1.452 74.463c8.663 22.084 17.276 44.167 25.94 66.25 25.338-15.373 50.676-30.796 76.015-46.17-7.311-17.927-14.572-35.904-21.883-53.831-12.87 4.356-26.44 9.464-40.612 15.423-14.221 6.01-27.341 12.169-39.46 18.328zM26.94 141.615c9.415 5.709 19.881 11.467 31.499 16.926 7.21 3.455 14.271 6.46 20.982 9.164 11.567-7.812 23.135-15.624 34.652-23.536 11.367-7.812 22.735-15.624 34.052-23.536-14.422-8.563-28.894-17.076-43.316-25.639-25.99 15.574-51.929 31.097-77.868 46.62z" transform="translate(-696 -158) translate(696 158) translate(43.065 117.679)"></path><path fill="#161616" d="M41.062 142.717c21.884-13.22 44.117-26.09 64.949-40.963.801-.55.05-1.852-.751-1.302-20.832 14.873-43.066 27.743-64.949 40.963-.801.5-.05 1.802.751 1.302zM49.375 147.874c21.883-13.22 44.117-26.09 64.948-40.962.802-.55.05-1.853-.75-1.302-20.832 14.873-43.066 27.742-64.95 40.962-.8.501-.05 1.803.752 1.302zM59.54 152.732c21.884-13.22 44.117-26.09 64.949-40.962.801-.551.05-1.853-.751-1.302-20.832 14.872-43.066 27.742-64.949 40.962-.851.5-.1 1.803.751 1.302zM67.853 157.89c21.883-13.22 44.117-26.09 64.949-40.963.8-.55.05-1.852-.752-1.302-20.831 14.873-43.065 27.743-64.948 40.963-.851.5-.1 1.802.751 1.302z" transform="translate(-696 -158) translate(696 158) translate(43.065 117.679)"></path><path fill="#161616" d="M47.873 138.01c5.508 3.505 11.066 6.96 16.575 10.465.801.501 1.552-.8.75-1.302-5.507-3.505-11.066-6.96-16.574-10.466-.801-.5-1.553.802-.751 1.302zM56.486 133.002c5.158 3.655 10.315 7.26 15.473 10.916.801.551 1.553-.75.751-1.302-5.157-3.655-10.315-7.26-15.473-10.916-.751-.551-1.502.751-.751 1.302zM64.748 127.944c4.958 3.606 9.865 7.311 14.622 11.217.752.601 1.803-.45 1.052-1.051-4.857-3.956-9.865-7.762-14.923-11.418-.8-.65-1.552.651-.75 1.252zM73.361 123.037c4.858 3.455 9.465 7.21 13.871 11.217.701.65 1.753-.4 1.052-1.052-4.507-4.106-9.214-7.912-14.172-11.467-.8-.551-1.552.75-.75 1.302zM81.273 118.73c4.507 3.706 8.714 7.662 12.67 11.918.65.701 1.702-.35 1.051-1.051-3.956-4.257-8.212-8.213-12.67-11.918-.7-.601-1.802.45-1.05 1.051zM87.533 113.823c4.907 3.856 9.364 8.112 13.47 12.77.651.75 1.703-.351 1.052-1.052-4.106-4.658-8.563-8.914-13.47-12.77-.702-.6-1.803.45-1.052 1.052zM95.345 108.465c4.807 3.855 9.514 7.862 13.97 12.068.702.65 1.754-.4 1.052-1.052-4.506-4.206-9.163-8.262-13.97-12.068-.752-.6-1.803.45-1.052 1.052zM101.955 104.759c2.654 1.502 4.757 3.906 6.96 6.01 2.154 2.052 4.257 4.105 6.41 6.158.701.651 1.753-.4 1.052-1.051-2.354-2.254-4.708-4.557-7.061-6.81-2.053-2.004-4.056-4.157-6.56-5.609-.901-.45-1.653.851-.801 1.302zM40.06 142.817c5.86 3.806 11.969 7.21 18.279 10.215.85.4 1.652-.901.75-1.302-6.309-3.004-12.368-6.46-18.277-10.215-.801-.501-1.552.801-.751 1.302zM105.91 102.155l.602.15c.4.1.85-.1.901-.5.1-.401-.1-.802-.5-.902l-.602-.15c-.4-.1-.851.1-.901.5-.15.351.1.802.5.902z" transform="translate(-696 -158) translate(696 158) translate(43.065 117.679)"></path><path fill="#161616" d="M105.76 102.055c6.31 2.804 11.768 7.11 17.878 10.265.85.451 1.602-.85.75-1.302-6.109-3.154-11.567-7.46-17.876-10.265-.852-.4-1.653.901-.752 1.302zM57.688 152.982c3.104 1.553 6.109 3.305 8.963 5.258.801.551 1.553-.751.751-1.302-2.904-1.953-5.859-3.705-8.963-5.258-.852-.45-1.603.851-.751 1.302zM64.898 148.776c2.304 1.702 4.507 3.555 6.61 5.558.702.651 1.753-.4 1.052-1.051-2.153-2.104-4.457-4.006-6.91-5.81-.752-.6-1.503.702-.752 1.303zM72.11 144.219c2.503 1.853 4.807 3.906 6.91 6.16.65.7 1.703-.351 1.052-1.052-2.204-2.354-4.607-4.507-7.211-6.41-.752-.551-1.503.751-.752 1.302zM79.67 139.412c2.104 2.003 4.107 4.106 6.06 6.209.651.701 1.703-.35 1.052-1.052-1.953-2.153-3.956-4.206-6.06-6.209-.7-.701-1.752.35-1.051 1.052zM100.553 126.192c2.003 2.353 4.006 4.757 6.059 7.11.6.751 1.702-.35 1.051-1.051-2.003-2.354-4.006-4.758-6.059-7.111-.65-.751-1.702.35-1.051 1.052zM109.416 120.883c2.003 2.104 3.906 4.307 5.809 6.51.65.751 1.702-.35 1.051-1.051-1.902-2.204-3.805-4.407-5.808-6.51-.651-.701-1.703.35-1.052 1.051zM115.275 116.978c3.205 1.502 6.36 2.954 9.564 4.456.852.4 1.653-.901.752-1.302-3.205-1.502-6.36-2.954-9.565-4.456-.851-.401-1.652.9-.751 1.302z" transform="translate(-696 -158) translate(696 158) translate(43.065 117.679)"></path><path fill="#161616" d="M123.487 111.92c2.805 1.753 5.659 3.405 8.563 4.907.852.451 1.603-.851.752-1.302-2.905-1.502-5.76-3.154-8.563-4.907-.802-.551-1.553.751-.752 1.302z" transform="translate(-696 -158) translate(696 158) translate(43.065 117.679)"></path><path fill="#FFF" d="M168.406 9.965c-.601 5.559-1.102 11.267-1.403 17.226-1.251 24.337.802 46.32 4.207 65.25 10.566-.05 19.079-.201 24.437-.351 36.756-.902 52.68-3.055 85.43-3.155 8.312 0 14.972.1 18.828.2 1.302-5.208 2.454-10.716 3.355-16.525 4.056-26.44 1.502-49.775-2.454-67.853-6.81-1.302-16.875-2.854-29.194-3.505-8.062-.4-10.315-.1-42.715 1.402-23.035 1.052-29.194 1.252-39.91 3.005-8.713 1.302-15.824 3.004-20.581 4.306z" transform="translate(-696 -158) translate(696 158) translate(43.065 117.679)"></path><path fill="#161616" d="M365.855 109.817c.3 6.81.2 13.62-.35 20.38-.05.952 1.452.952 1.502 0 .55-6.81.65-13.57.35-20.38-.05-1.002-1.552-1.002-1.502 0zM374.669 111.269v18.929c0 .951 1.502.951 1.502 0v-18.93c0-1-1.502-1-1.502 0z" transform="translate(-696 -158) translate(696 158) translate(43.065 117.679)"></path><path fill="#161616" d="M365.705 129.497c-1.602-.1-7.762 1.001-6.51 3.855.55 1.302 2.754 1.402 3.856 1.603 2.554.4 5.158.5 7.712.5 2.453-.05 5.007-.05 7.461-.35 1.152-.15 3.505-.4 4.206-1.552 1.553-2.654-5.358-3.906-6.66-4.107-.951-.15-1.352 1.302-.4 1.453 1.101.2 2.153.4 3.255.8 1.452.502 2.854.802 1.051 1.653-2.003.902-5.258.551-7.411.601-2.504.05-5.058.05-7.562-.25-.951-.1-4.757-.05-2.904-1.853.901-.901 2.804-.901 3.956-.851.952.05.952-1.452-.05-1.502zM327.197 103.056c12.569 3.756 25.438 6.21 38.508 7.362.951.1.951-1.403 0-1.503-12.92-1.101-25.689-3.555-38.108-7.26-.901-.301-1.302 1.151-.4 1.401zM374.819 111.42c16.725 2.954 33.751 4.055 50.627 2.353.951-.1.951-1.603 0-1.503-16.776 1.653-33.651.651-50.227-2.303-.951-.15-1.352 1.302-.4 1.452z" transform="translate(-696 -158) translate(696 158) translate(43.065 117.679)"></path><path fill="#161616" d="M327.697 101.855c-1.202-21.733-2.303-43.717 2.504-65.15.2-.95-1.252-1.351-1.452-.4-4.807 21.533-3.706 43.666-2.554 65.55.05.951 1.552.951 1.502 0z" transform="translate(-696 -158) translate(696 158) translate(43.065 117.679)"></path><path fill="#161616" d="M329.55 37.206c16.024-3.405 33-2.954 49.325-2.654 16.074.3 32.249 1.753 47.672 6.56.902.3 1.302-1.151.4-1.452-15.573-4.857-31.847-6.31-48.072-6.61-16.425-.3-33.55-.751-49.725 2.704-.952.25-.551 1.653.4 1.452z" transform="translate(-696 -158) translate(696 158) translate(43.065 117.679)"></path><path fill="#161616" d="M426.597 40.762c3.606 23.886 2.955 48.323-1.852 71.96-.2.95 1.251 1.351 1.452.4 4.857-23.987 5.508-48.624 1.853-72.76-.15-.952-1.603-.552-1.453.4zM.701 75.364c8.713 22.434 17.427 44.818 26.14 67.252.35.902 1.802.501 1.452-.4-8.713-22.434-17.427-44.818-26.14-67.252-.35-.902-1.802-.501-1.452.4z" transform="translate(-696 -158) translate(696 158) translate(43.065 117.679)"></path><path fill="#161616" d="M26.54 143.117c17.026 9.264 34.453 17.777 52.18 25.589.9.4 1.652-.901.75-1.302-17.726-7.812-35.153-16.375-52.179-25.589-.85-.45-1.602.801-.75 1.302z" transform="translate(-696 -158) translate(696 158) translate(43.065 117.679)"></path><path fill="#161616" d="M79.721 168.806c22.835-15.724 45.72-31.498 68.554-47.221.801-.551.05-1.853-.751-1.302-22.835 15.723-45.72 31.497-68.554 47.221-.801.551-.05 1.853.751 1.302zM1.352 75.214c26.04-12.97 52.88-24.287 80.372-33.901.901-.3.5-1.753-.4-1.453C53.731 49.525 26.79 60.892.6 73.912c-.901.45-.15 1.703.751 1.302zM27.842 142.066c25.289-15.474 50.627-30.947 75.915-46.42.802-.502.05-1.804-.75-1.303-25.29 15.474-50.628 30.947-75.916 46.42-.801.501-.05 1.803.751 1.303z" transform="translate(-696 -158) translate(696 158) translate(43.065 117.679)"></path><path fill="#161616" d="M80.723 41.112c7.36 17.777 14.672 35.554 22.033 53.281.35.902 1.803.501 1.452-.4-7.361-17.777-14.672-35.554-22.033-53.281-.35-.902-1.803-.501-1.452.4z" transform="translate(-696 -158) translate(696 158) translate(43.065 117.679)"></path><path fill="#161616" d="M103.808 95.295c14.722 8.412 29.444 16.875 44.116 25.288.852.5 1.603-.801.752-1.302-14.723-8.413-29.445-16.876-44.117-25.288-.852-.451-1.603.85-.751 1.302zM167.003 10.316c-2.053 27.291.551 54.633 3.205 81.774.1.951 1.603.951 1.503 0-2.654-27.192-5.258-54.483-3.205-81.774.1-.952-1.402-.952-1.503 0z" transform="translate(-696 -158) translate(696 158) translate(43.065 117.679)"></path><path fill="#161616" d="M168.205 10.967c15.924-5.81 33.1-6.21 49.826-7.211 17.376-1.052 34.803-2.404 52.18-1.903 10.215.3 20.38 1.252 30.445 3.305.952.2 1.352-1.252.4-1.452C283.732.15 266.055-.15 248.478.55c-17.727.7-35.604 1.552-53.23 3.255-9.315.901-18.579 2.453-27.442 5.658-.902.401-.501 1.853.4 1.503z" transform="translate(-696 -158) translate(696 158) translate(43.065 117.679)"></path><path fill="#161616" d="M300.656 4.507c5.108 27.742 4.757 56.335-1.101 83.977.25-.2.5-.35.7-.55-33.45 1.101-66.85 2.153-100.302 3.254l-28.443.902c-.951.05-.951 1.552 0 1.502 33.451-1.102 66.852-2.153 100.302-3.255 9.465-.3 18.98-.6 28.444-.901.3 0 .65-.2.7-.551 5.86-27.892 6.26-56.736 1.102-84.779-.15-.951-1.602-.55-1.402.4z" transform="translate(-696 -158) translate(696 158) translate(43.065 117.679)"></path><path fill="#000" d="M366.707 109.616c0 2.805-.05 5.659-.1 8.513-.1 4.006-.201 8.012-.351 11.918-.651-.1-2.053-.2-3.606.451-.15.05-2.954 1.252-2.854 2.304.25 1.802 9.214 2.053 14.121 1.852 2.805-.1 7.963-.3 8.113-1.402.1-.851-2.504-1.953-6.21-3.054l-.45-19.88c-2.905-.251-5.81-.501-8.663-.702z" transform="translate(-696 -158) translate(696 158) translate(43.065 117.679)"></path><path fill="#E8E8E8" d="M333.957 42.214c-1.953 16.475-2.554 33.05-1.753 49.625.05.952 1.552.952 1.502 0-.75-16.575-.15-33.15 1.753-49.625.1-.951-1.402-.951-1.502 0z" transform="translate(-696 -158) translate(696 158) translate(43.065 117.679)"></path><path fill="#E8E8E8" d="M335.159 42.815c6.91-2.554 14.221-3.205 21.532-3.305 7.211-.05 14.422.2 21.583.65 14.923.952 29.745 3.006 44.367 6.01.952.2 1.352-1.252.401-1.452-14.772-3.055-29.695-5.108-44.768-6.06-7.461-.5-15.023-.75-22.484-.65-7.11.1-14.272.851-20.982 3.355-.951.3-.55 1.752.35 1.452z" transform="translate(-696 -158) translate(696 158) translate(43.065 117.679)"></path><path fill="#E8E8E8" d="M422.541 45.57c.751 19.529-1.051 39.058-3.004 58.488-.1.951 1.402.951 1.502 0 1.953-19.43 3.706-38.96 3.005-58.489-.05-.951-1.553-.951-1.503 0z" transform="translate(-696 -158) translate(696 158) translate(43.065 117.679)"></path><path fill="#E8E8E8" d="M332.455 92.941c5.908 3.505 13.42 4.607 20.03 6.06 7.662 1.702 15.423 3.104 23.235 4.206 7.361 1.051 14.773 1.802 22.234 2.303 7.311.5 15.073 1.302 22.284-.15.951-.2.55-1.653-.4-1.452-7.212 1.502-15.074.55-22.385.1-7.461-.5-14.922-1.302-22.284-2.354-7.16-1.051-14.271-2.303-21.332-3.856-6.76-1.502-14.572-2.604-20.631-6.109-.852-.55-1.603.751-.751 1.252zM334.257 49.575c29.695-1.803 59.39 1.503 88.735 5.609.951.15 1.352-1.302.4-1.452-29.494-4.157-59.29-7.462-89.135-5.659-.951.05-.951 1.552 0 1.502zM344.423 44.618c-.35-.1-.35-.551 0-.651.45-.2.8.3.75.7-.05.652-.8.201-.7-.15l.15-.15c-.05.05-.1-.05-.1-.05.05-.1.35-.35.35 0 0-.951-1.502-.951-1.502 0 0 .751.601 1.302 1.352 1.302.801 0 1.402-.7 1.252-1.502-.1-.801-.851-1.352-1.652-1.252-.852.15-1.453.951-1.403 1.803.15 1.853 2.855 2.504 3.556.65.6-1.502-.701-3.254-2.354-2.904-.801.15-1.502.852-1.502 1.703-.05.851.55 1.652 1.352 1.903.951.3 1.352-1.152.45-1.402zM352.435 43.666c-.25-.05 0-.25.15-.25.3.05.25.4 0 .4h-.05s-.05-.05-.05-.15v-.15s0 .05-.05.05c-.1 0 .1-.05.05 0 .35-.15-.05.1.05 0v-.1s.25.05 0 0c-.4-.15-.801.15-.901.5-.1.401.15.802.5.902.651.25 1.403-.15 1.703-.751.35-.601.15-1.352-.4-1.753-1.052-.8-2.605 0-2.504 1.352.15 1.453 1.852 2.003 2.854.952 1.001-1.102.15-2.804-1.302-2.855-.801 0-1.552.551-1.703 1.353-.2.8.35 1.652 1.152 1.852 1.052.35 1.452-1.101.5-1.352zM367.408 63.396c-6.76 2.804-13.42 5.759-20.03 8.814-.652.3-.351 1.201.2 1.352 5.658 2.003 11.066 4.506 16.274 7.461.851.5 1.603-.801.751-1.302-5.308-3.055-10.866-5.558-16.625-7.612.05.451.1.902.2 1.352 6.51-3.004 13.07-5.908 19.68-8.663.852-.35.45-1.802-.45-1.402zM386.286 61.143c-5.658 7.16-11.267 14.271-16.925 21.432-.601.751.45 1.803 1.051 1.052 5.659-7.161 11.267-14.272 16.926-21.433.6-.7-.45-1.802-1.052-1.051zM393.848 69.455c4.707 3.005 9.614 5.659 14.672 7.962v-1.301c-5.408 3.054-10.816 6.109-16.225 9.113-.851.451-.1 1.753.751 1.302 5.409-3.054 10.817-6.109 16.225-9.114.45-.25.5-1.051 0-1.301-5.058-2.304-9.965-4.958-14.672-7.963-.801-.55-1.553.752-.751 1.302z" transform="translate(-696 -158) translate(696 158) translate(43.065 117.679)"></path><path fill="#E8E8E8" d="M394.8 101.504c6.209.15 12.368.3 18.577.4.952 0 .952-1.502 0-1.502-6.21-.15-12.368-.3-18.578-.4-.951 0-.951 1.502 0 1.502zM5.609 76.716c7.711 18.378 14.922 36.957 21.732 55.685.351.901 1.803.5 1.453-.4-6.81-18.73-14.022-37.307-21.733-55.685-.4-.902-1.853-.5-1.452.4z" transform="translate(-696 -158) translate(696 158) translate(43.065 117.679)"></path><path fill="#E8E8E8" d="M6.51 76.316c23.836-9.765 47.672-19.58 71.358-29.695.902-.4.1-1.653-.751-1.302-23.586 10.065-47.272 19.83-71.008 29.545-.901.4-.5 1.852.4 1.452z" transform="translate(-696 -158) translate(696 158) translate(43.065 117.679)"></path><path fill="#E8E8E8" d="M77.718 46.22c7.01 14.973 13.52 30.146 19.58 45.47.35.9 1.802.5 1.452-.401-6.11-15.474-12.67-30.797-19.73-45.87-.4-.801-1.703-.05-1.302.801z" transform="translate(-696 -158) translate(696 158) translate(43.065 117.679)"></path><path fill="#E8E8E8" d="M29.144 133.453c11.718-6.56 23.286-13.27 34.753-20.181 5.659-3.405 11.317-6.86 16.926-10.366 5.508-3.455 11.016-6.96 16.975-9.664.902-.401.1-1.703-.75-1.302-5.96 2.704-11.468 6.209-16.976 9.664-5.609 3.506-11.268 6.96-16.926 10.366-11.468 6.91-23.085 13.62-34.753 20.18-.851.501-.1 1.803.751 1.303z" transform="translate(-696 -158) translate(696 158) translate(43.065 117.679)"></path><path fill="#0071AC" d="M34.953 87.933c-3.305-2.003-6.61 1.453-8.513 3.906-2.303 2.955-2.904 6.51-1.502 10.016 1.252 3.054 4.056 6.109 7.611 5.909 4.207-.25 6.71-3.956 8.613-7.261.501-.852-.8-1.603-1.302-.752-1.352 2.354-2.854 4.958-5.508 6.01-3.155 1.301-5.959-.601-7.511-3.356-1.202-2.103-1.603-4.707-.801-7.06.8-2.254 5.107-7.912 8.112-6.11.851.501 1.652-.8.801-1.302zM52.78 79.771c0-2.303-2.353-1.652-3.605-.701-2.003 1.502-4.407 4.907-4.758 7.411-.4 3.155 3.055 2.554 5.208 2.354 2.704-.25 6.51.751 4.407 4.356-1.352 2.304-4.106 3.356-6.61 3.456-.951.05-.951 1.552 0 1.502 3.806-.2 10.866-3.806 8.313-8.713-1.102-2.053-3.556-2.354-5.659-2.204-.55.05-2.103.451-2.654.25-2.003-.75-.901-2.353-.4-3.304.35-.651.7-1.352 1.151-1.953.15-.2 3.055-3.105 3.055-2.504.05 1.052 1.552 1.052 1.552.05zM71.91 68.454c-2.455-.952-4.658 1.152-6.11 2.904-1.202 1.402-3.355 4.257-2.604 6.31.801 2.203 4.206 1.202 5.809 1.001.851-.1 1.802-.25 2.654-.1 2.253.3 3.054 2.604 2.003 4.457-1.252 2.203-3.706 2.904-6.01 3.205-.95.15-.55 1.602.401 1.452 3.706-.55 10.216-4.306 7.01-8.964-1.551-2.253-4.656-1.702-6.91-1.452-.5.05-2.353.551-2.654.2-.75-.75-.3-2.503.15-3.304 1.002-1.703 3.456-5.258 5.91-4.307.85.4 1.251-1.052.35-1.402z" transform="translate(-696 -158) translate(696 158) translate(43.065 117.679)"></path><path fill="#E8E8E8" d="M73.111 101.855c3.756-2.404 7.561-4.858 11.317-7.261.801-.501.05-1.803-.751-1.302-3.756 2.403-7.561 4.857-11.317 7.26-.801.551-.05 1.853.751 1.303zM87.633 92.941c.951-.45 1.903-.901 2.904-1.352.852-.4.1-1.703-.75-1.302-.952.45-1.904.901-2.905 1.352-.902.4-.1 1.703.751 1.302zM64.548 55.384c.05-.1.05-.2.1-.35 0-.05.05-.05.05-.1.1-.05.2-.15.35-.2-.15.05.301.05.351.05.15.05.15.15.2.25.05.1 0-.1 0 0-.05.15 0-.1 0 0 0 .05 0 .05 0 0l-.05.05c-.05 0-.1.05-.1.05-.1.05-.05-.05 0 0h-.05c.05 0 .05 0 0 0 0-.05 0 .05 0 0 0 0-.05 0-.05-.05-.05-.05 0-.05 0 .05 0-.05 0-.05 0 0 0 0-.05-.15 0-.15 0 0-.05.1-.05.15.05-.15-.05.05 0-.05l.05-.05c-.05.05.1 0 .1 0 .05 0 .1 0 .1.05.05 0 .05.05 0 0 0 0 .05.15.05.05v.2c-.05.15-.2.2-.3.2h-.05c.1.05 0 0-.05 0 .1.05-.05-.05-.05-.05-.05-.1-.05-.15-.05-.25 0-.15 0-.2.15-.3l.05-.05c.05 0 .05-.05.1-.05h.05.05c-.1-.05.05.05.1.05.1.05.2.25.2.35 0-.4-.35-.751-.75-.751s-.751.35-.751.75c0 1.403 2.253 1.403 2.303.05.05-1.351-2.103-1.602-2.404-.3-.15.651.3 1.352.952 1.553.6.15 1.252-.15 1.502-.701.3-.551.2-1.252-.25-1.703-.45-.45-1.202-.6-1.753-.25-.6.35-.801 1.202-.45 1.803.2.3.55.55.9.55.451 0 .902-.4.902-.901-.05-.4-.3-.751-.751-.751-.3.05-.701.4-.701.801zM71.358 52.38c.4-.1.551.55.15.6-.05 0-.2-.05-.15-.05.05.05-.1-.1 0 0-.1-.1-.05-.05 0 .05 0-.05 0-.05-.05-.1 0 .05 0 .05 0 0s0-.05 0 0v-.05c0-.05.05-.15.1-.2.05-.05.15-.05.2-.1-.2 0 .15 0 0 0 .05 0 .05 0 .1.05-.05-.05-.05-.05 0 0s.05.05 0 0l.05.05c-.05-.15.051.15 0 0 0 .05 0 .25.051.15l-.5.5c.1-.05.25-.1.35-.1-.1 0 .1 0 0 0-.05 0-.05 0 0 0s.05 0 0 0c-.05-.05-.1-.05-.15-.15 0-.05-.05-.2-.05-.15 0 .1.05-.15 0-.05.05-.2.25-.35.45-.35-.4 0-.751.35-.751.75 0 .401.35.752.751.752 1.152 0 1.402-1.603.45-2.153-.45-.25-1-.2-1.501 0-.601.25-.702.951-.401 1.502.5.901 1.953 1.001 2.303-.1.3-.902-.55-1.903-1.502-1.753-.65.1-1.102.851-.951 1.452.15.651.851 1.052 1.452.852.4-.1.65-.551.5-.902-.1-.35-.5-.6-.9-.5zM171.46 12.97c.4 25.088 1.703 50.126 4.006 75.114.1.951 1.603.951 1.503 0-2.254-24.988-3.606-50.026-4.007-75.114 0-1.002-1.502-1.002-1.502 0z" transform="translate(-696 -158) translate(696 158) translate(43.065 117.679)"></path><path fill="#E8E8E8" d="M173.213 13.77c10.265-1.802 20.681-2.152 31.047-2.603 10.065-.4 20.18-.801 30.246-1.152 20.33-.75 40.662-1.352 60.992-1.903.952 0 .952-1.502 0-1.502-20.68.55-41.312 1.152-61.994 1.903-10.265.35-20.48.751-30.746 1.202-10.016.4-20.03.851-29.946 2.604-.901.15-.5 1.602.4 1.452z" transform="translate(-696 -158) translate(696 158) translate(43.065 117.679)"></path><path fill="#E8E8E8" d="M295.248 7.762c2.804 5.358 2.654 11.567 2.804 17.426.15 6.11.2 12.219.15 18.328-.1 12.219-.55 24.387-1.402 36.606-.05.951 1.453.951 1.503 0 .851-12.82 1.352-25.69 1.402-38.559.05-6.26-.05-12.519-.2-18.828-.15-5.409-.351-10.817-2.955-15.724-.45-.852-1.753-.1-1.302.75z" transform="translate(-696 -158) translate(696 158) translate(43.065 117.679)"></path><path fill="#E8E8E8" d="M176.568 88.284c39.46-7.311 80.021-6.36 119.932-7.01.951 0 .951-1.503 0-1.503-40.11.651-80.773-.25-120.333 7.06-.951.201-.55 1.653.401 1.453zM186.533 17.226c-2.003 1.352-3.906 2.854-5.709 4.507-.35.35-.25.951.15 1.202 1.803 1.101 4.457.851 5.86 2.504.6.75 1.652-.3 1.051-1.052-1.552-1.903-4.206-1.552-6.16-2.754l.151 1.202c1.703-1.553 3.505-2.955 5.408-4.257.801-.6.05-1.903-.75-1.352zM194.796 16.475c-2.053 3.055-3.756 6.21-5.208 9.565-.4.9.901 1.652 1.302.75 1.452-3.354 3.154-6.56 5.208-9.564.5-.801-.802-1.552-1.302-.751zM197.75 22.334c2.304-.3 4.657-.35 6.96-.15.952.1.952-1.402 0-1.503-2.353-.2-4.656-.15-6.96.15-.951.1-1.001 1.603 0 1.503zM206.413 16.926c1.803 2.503 5.108 2.704 7.161 4.857l.15-1.202c-2.203 1.252-4.206 2.704-6.009 4.407-.7.65.35 1.703 1.052 1.052 1.752-1.603 3.655-3.005 5.708-4.157.451-.25.501-.851.15-1.202-1.952-2.003-5.307-2.253-6.96-4.557-.55-.7-1.853.05-1.252.802zM176.217 35.354l6.16-.451c.951-.05.951-1.552 0-1.502l-6.16.45c-.951.1-.951 1.603 0 1.503zM187.184 34.552c13.871-.8 27.742-1.652 41.613-2.453.952-.05.952-1.553 0-1.503-13.87.802-27.742 1.653-41.613 2.454-.951.05-1.001 1.553 0 1.502zM177.019 41.363h3.405c.951 0 .951-1.503 0-1.503h-3.405c-1.002 0-1.002 1.503 0 1.503zM184.58 40.762c1.352.1 2.704-.05 4.006-.4.952-.251.551-1.703-.4-1.453-1.202.3-2.354.4-3.606.3-.951 0-.951 1.503 0 1.553zM196.899 39.71c13.17-1.252 26.39-1.602 39.66-1.051.951.05.951-1.453 0-1.503-13.22-.55-26.44-.2-39.66 1.052-.952.05-.952 1.552 0 1.502zM178.871 48.874c-.85 1.052-1.752 2.103-2.754 3.055-.4.4-.2 1.101.35 1.252 1.553.45 3.156.65 4.758.7.951 0 .951-1.502 0-1.502-1.502 0-2.904-.2-4.357-.65.1.4.2.85.35 1.251 1.002-.951 1.904-1.953 2.755-3.054.551-.751-.55-1.853-1.102-1.052zM183.98 51.829c6.81-1.302 13.72-1.903 20.68-1.803.952 0 .952-1.502 0-1.502-7.11-.15-14.12.5-21.081 1.852-.902.2-.501 1.603.4 1.453zM206.714 48.073c2.453 1.252 5.408.4 7.761 1.753.05-.451.1-.902.2-1.352-1.401.45-2.653 1.101-3.855 1.953-.801.55-.05 1.852.751 1.302 1.102-.752 2.203-1.353 3.505-1.803.601-.2.752-1.052.2-1.352-2.403-1.452-5.307-.501-7.761-1.753-.901-.5-1.653.801-.801 1.252zM273.014 12.92c-1.202.2-1.953 1.001-2.203 2.203-.15.801.1 1.602.25 2.354.501 2.203.2 3.305-1.802 4.506-.601.401-.401 1.402.4 1.402 2.103-.05 1.352 9.665 5.809 6.41.801-.55.05-1.853-.751-1.302-2.053 1.452-1.903-3.305-2.003-3.806-.1-.55-.25-1.051-.5-1.502-.602-.951-1.403-1.352-2.555-1.302.15.45.25.952.4 1.402 1.153-.7 2.354-1.502 2.805-2.854.4-1.202-1.302-5.709.601-6.06.901-.15.5-1.602-.45-1.451zM282.78 13.52c1.702-.25 2.353.752 2.052 3.105-.15.3-.3.551-.45.852-.1.5-.3.85-.3 1.402 0 1.051.7 1.252 1.05 2.053.301.75-.05.65-.15 1.602-.3 2.003 2.454 3.656-.15 5.458-.801.551-.05 1.853.751 1.302 1.102-.75 1.903-1.852 1.903-3.254 0-.551-.25-1.052-.4-1.553-.3-1.252-.1-2.153.25-3.355.05-.25 0-.55-.2-.751-.15-.1-.551-.4-.701-.55-1.202-1.203-.4-1.804.15-3.156.3-.8.55-1.452.3-2.303-.45-1.803-2.353-2.404-4.006-2.354-1.051 0-1.051 1.503-.1 1.503zM227.996 21.533c7.912-.651 15.774-1.252 23.686-1.903.951-.1.951-1.603 0-1.502-7.912.65-15.774 1.251-23.686 1.902-.951.05-.951 1.553 0 1.503zM262.048 19.129c1.802.25 3.605.2 5.358-.1.951-.15.55-1.603-.4-1.452-1.653.25-3.306.25-4.958.05-.952-.15-.952 1.352 0 1.502zM181.776 62.244c13.27-.85 26.54-1.752 39.81-2.603.952-.05.952-1.553 0-1.503-13.27.852-26.54 1.753-39.81 2.604-.952.05-.952 1.553 0 1.502zM230.2 58.589c5.057-.5 10.065-.952 15.122-1.402.952-.1.952-1.603 0-1.502-5.057.4-10.115.9-15.123 1.402-.951.1-.951 1.602 0 1.502zM256.69 56.636c9.865-1.002 19.78-1.753 29.645-2.203.951-.05.951-1.553 0-1.503-9.916.501-19.78 1.202-29.645 2.204-.952.1-.952 1.602 0 1.502zM187.685 67.202c-1.853 1.302-3.756 2.654-5.609 3.956-.5.35-.5 1.202.2 1.352 1.954.5 3.907.901 5.91 1.202.951.15 1.352-1.302.4-1.452-2.003-.3-3.956-.701-5.909-1.202.05.45.1.901.2 1.352 1.853-1.302 3.756-2.654 5.609-3.956.751-.551 0-1.853-.801-1.252zM195.346 66.35c-2.153 2.504-4.156 5.108-5.959 7.913-.55.8.752 1.552 1.302.75 1.703-2.653 3.606-5.207 5.709-7.61.651-.702-.4-1.803-1.052-1.052zM199.803 68.504c.651.5 1.352.751 2.053 1.001.451.15.902.25 1.352.401.25.1.551.25.752.4-.05-.35-.2-.45-.451-.3-.651-.05-1.903.751-2.504 1.052-.951.45-1.803 1.051-2.654 1.652-.751.551 0 1.853.751 1.302 1.102-.851 2.304-1.552 3.606-2.103.8-.35 2.503-.5 2.754-1.552.2-.902-.801-1.402-1.452-1.703-1.152-.5-2.454-.65-3.506-1.402-.7-.6-1.452.701-.7 1.252zM216.479 70.607c6.159-.5 12.318-1.152 18.478-.801.951.05.951-1.452 0-1.502-6.21-.35-12.32.3-18.478.8-1.002.05-1.002 1.553 0 1.503zM248.327 68.354c11.567-1.352 23.185-1.853 34.853-1.603.951 0 .951-1.502 0-1.502-11.618-.25-23.286.3-34.853 1.602-.952.1-.952 1.603 0 1.503z" transform="translate(-696 -158) translate(696 158) translate(43.065 117.679)"></path><path fill="#5222D0" d="M334.257 41.613c-.25 2.504-.5 5.058-.7 7.562 14.471-.451 30.345-.3 47.371.8 15.073 1.002 29.144 2.605 42.014 4.608.3-3.155.55-6.31.851-9.465-5.809-1.151-13.47-2.503-22.484-3.755-11.568-1.603-20.38-2.304-25.188-2.654-12.169-.852-18.378-1.252-26.64-.25-6.46.85-11.668 2.153-15.224 3.154z" opacity=".16" transform="translate(-696 -158) translate(696 158) translate(43.065 117.679)"></path><path fill="#4C4C4C" d="M30.897 60.642c-1.653 4.507-3.656 11.067-4.607 19.13-1.152 9.964-4.106 35.403 9.214 43.165 9.114 5.308 23.636 1.101 35.904-8.914 2.104 1.703 4.257 3.355 6.36 5.058l-37.407 22.684c8.814 5.258 17.627 10.466 26.39 15.724 9.515-5.659 18.98-11.267 28.494-16.926 4.807 2.354 9.614 4.758 14.371 7.111-9.965 7.01-19.88 14.021-29.845 21.082-17.376-8.663-34.703-17.326-52.079-25.99-8.813-22.884-17.627-45.819-26.39-68.704 9.915-4.406 19.78-8.913 29.595-13.42z" opacity=".12" transform="translate(-696 -158) translate(696 158) translate(43.065 117.679)"></path><path fill="#4C4C4C" d="M394.599 34.853c1.202 2.854 2.654 6.96 3.555 12.068.35 2.103 3.105 18.779-4.256 33.451-7.862 15.724-25.64 25.84-45.67 26.99 15.274 3.306 33.15 5.91 53.181 6.46 8.413.251 16.425.1 23.936-.35 2.104-8.613 3.906-18.878 4.607-30.596 1.002-16.926-.6-31.548-2.704-42.815-10.916-1.653-21.783-3.455-32.65-5.208z" opacity=".08" transform="translate(-696 -158) translate(696 158) translate(43.065 117.679)"></path><path fill="#4C4C4C" d="M270.41 1.402c1.753 3.255 3.956 8.163 4.858 14.422 2.253 15.123-4.507 27.191-9.164 35.304-14.021 24.286-37.407 35.954-47.823 40.41 21.733-.15 44.067-.8 66.902-2.152 5.108-.3 10.165-.601 15.223-.952 2.203-9.715 4.006-21.182 4.707-34.152 1.002-19.83-1.052-36.956-3.706-50.126-10.315-.951-20.63-1.853-30.997-2.754z" opacity=".09" transform="translate(-696 -158) translate(696 158) translate(43.065 117.679)"></path></g></g><g><g><path fill="#000" d="M15.023 104.258c.5 3.405.951 6.96 1.352 10.666.45 4.257.7 8.363.901 12.269.4.751 1.102 1.753 2.254 2.554 1.802 1.252 3.755 1.252 5.859 1.202 6.109-.15 9.163-.2 10.515-.451 4.758-.951 9.265-1.803 10.216-4.807.651-2.003-.651-4.207-.751-4.357-.751-1.252-1.753-1.803-3.455-2.704-1.152-.651-3.105-1.652-5.86-1.953-2.353-.25-4.306.1-5.558.45-.65-5.307-1.302-10.615-1.953-15.873l-13.52 3.004z" transform="translate(-696 -158) translate(696 158) translate(153.733 130.198) translate(130.698 203.309)"></path><path fill="#FFF" d="M5.959 5.158c-4.056 4.407-2.804 9.114-4.457 37.507C.852 54.082.601 53.53.401 60.392c-.551 15.673.3 26.49.8 31.748.351 3.956.802 7.26 1.102 9.564 2.955 1.503 8.013 3.506 14.222 2.855 3.656-.35 6.41-1.553 8.463-2.404 4.507-1.903 7.812-4.407 9.915-6.21L32.349 1.153C14.672-2.203 8.313 2.604 5.96 5.158z" transform="translate(-696 -158) translate(696 158) translate(153.733 130.198) translate(130.698 203.309)"></path><path fill="#161616" d="M2.504 9.314C-.3 39.71-.651 70.307 1.452 100.803c.05.951 1.553.951 1.502 0C.851 70.357 1.202 39.71 4.006 9.314c.1-.951-1.402-.951-1.502 0z" transform="translate(-696 -158) translate(696 158) translate(153.733 130.198) translate(130.698 203.309)"></path><path fill="#161616" d="M2.203 102.255c11.117 5.759 23.887 2.454 32.8-5.708.701-.651-.35-1.703-1.051-1.052-8.413 7.712-20.482 10.916-30.998 5.508-.85-.5-1.602.801-.75 1.252z" transform="translate(-696 -158) translate(696 158) translate(153.733 130.198) translate(130.698 203.309)"></path><path fill="#161616" d="M31.197 2.454l2.404 92.84c.05.952 1.552.952 1.502 0L32.7 2.455c0-.952-1.503-.952-1.503 0zM14.372 104.91c1.202 6.058 1.953 12.168 2.253 18.327.05.951 1.553.951 1.503 0-.3-6.31-1.052-12.57-2.304-18.728-.2-.952-1.652-.551-1.452.4zM27.792 101.154c.3 6.56.902 13.07 1.803 19.58.15.95 1.602.55 1.452-.401-.901-6.36-1.502-12.77-1.753-19.18-.05-.95-1.552-.95-1.502 0z" transform="translate(-696 -158) translate(696 158) translate(153.733 130.198) translate(130.698 203.309)"></path><path fill="#161616" d="M30.346 117.428c5.408-.7 10.716.902 14.772 4.557.702.651 1.803-.4 1.052-1.051-4.357-3.906-10.015-5.76-15.824-5.008-.951.1-.951 1.602 0 1.502z" transform="translate(-696 -158) translate(696 158) translate(153.733 130.198) translate(130.698 203.309)"></path><path fill="#161616" d="M16.625 122.686c-.25 3.155-.1 6.96 3.255 8.413 1.302.55 2.955.6 4.357.701 2.403.2 4.807.3 7.21.2 5.76-.3 16.926-2.604 15.274-10.666-.2-.951-1.653-.55-1.452.4 1.452 7.112-9.965 8.664-14.723 8.814-2.554.1-5.107-.05-7.661-.35-4.507-.551-5.058-3.506-4.757-7.462.05-1.001-1.453-1.001-1.503-.05z" transform="translate(-696 -158) translate(696 158) translate(153.733 130.198) translate(130.698 203.309)"></path><path fill="#4C4C4C" d="M3.505 9.014C8.413 7.26 13.32 5.508 18.228 3.806c-.852 16.274-1.052 34.051-.2 53.08.7 16.225 2.103 31.448 3.855 45.52-1.001.45-2.103.85-3.305 1.151-6.91 1.803-13.07-.5-16.074-1.953C1.102 84.93.4 66.501.95 46.571 1.352 33.3 2.253 20.78 3.505 9.014z" opacity=".11" transform="translate(-696 -158) translate(696 158) translate(153.733 130.198) translate(130.698 203.309)"></path><path fill="#4C4C4C" d="M3.105 10.015c.2 8.763.75 20.13 1.953 33.3.951 10.467 2.003 18.278 2.303 20.732 1.452 10.566 3.656 24.287 7.361 40.311-4.206-.951-8.412-1.953-12.569-2.904-.75-16.074-1.101-33.1-.75-50.977.2-14.072.8-27.592 1.702-40.462z" opacity=".1" transform="translate(-696 -158) translate(696 158) translate(153.733 130.198) translate(130.698 203.309)"></path></g><g><path fill="#000" d="M39.01 44.367c.3 1.553.7 3.806 1.201 6.61 2.955 17.827 2.904 30.647 3.205 41.463.25 9.214.851 22.384 2.554 38.76-1.052.45-2.654 1.2-4.557 2.202-4.707 2.454-11.017 5.76-16.926 11.868-1.752 1.803-4.206 4.607-6.61 8.463 7.962.751 17.376 1.102 27.943.35 12.97-.95 24.186-3.254 33.15-5.758-2.704-2.303-5.709-4.607-8.964-6.96-6.21-4.357-12.168-7.812-17.576-10.516-1.202-11.668-2.154-23.937-2.705-36.706-.85-19.73-.75-38.308 0-55.534-3.605 1.953-7.16 3.855-10.716 5.758z" transform="translate(-696 -158) translate(696 158) translate(153.733 130.198) translate(84.128 205.312)"></path><path fill="#FFF" d="M1.953 20.03c0-2.303 2.654-4.256 7.962-8.112 2.504-1.853 9.414-6.51 20.982-9.164C41.062.451 48.874 1.102 58.339 1.903c13.47 1.152 19.68 3.856 21.332 4.557 4.907 2.203 8.613 4.807 11.017 6.76-.852 3.055-2.554 7.361-6.11 11.317-2.453 2.804-9.164 9.214-27.742 10.666-25.789 2.104-54.933-6.81-54.883-15.173z" transform="translate(-696 -158) translate(696 158) translate(153.733 130.198) translate(84.128 205.312)"></path><path fill="#000" d="M3.455 17.126c-.65 1.402-1.252 2.954-1.702 4.757-1.703 6.46-.751 12.119.15 15.574 2.704 1.252 6.56 2.804 11.317 4.206 14.622 4.357 26.54 3.756 36.205 3.205 12.72-.701 20.932-1.302 30.446-6.26 5.258-2.754 9.164-5.958 11.668-8.312-.15-5.458-.35-10.967-.5-16.425-4.157 2.754-8.914 5.358-14.222 7.461-31.048 12.42-61.794.902-73.362-4.206z" transform="translate(-696 -158) translate(696 158) translate(153.733 130.198) translate(84.128 205.312)"></path><path fill="#161616" d="M1.102 20.531C.05 26.19.1 31.898 1.152 37.557c.2.951 1.602.55 1.452-.4-1.002-5.409-1.052-10.817-.05-16.225.2-.952-1.252-1.352-1.452-.4z" transform="translate(-696 -158) translate(696 158) translate(153.733 130.198) translate(84.128 205.312)"></path><path fill="#161616" d="M1.602 37.557c6.76 4.357 14.923 5.458 22.735 6.61 8.413 1.202 16.876 1.903 25.388 1.202 14.573-1.202 32.55-2.604 42.515-14.773.6-.75-.45-1.802-1.052-1.051-4.707 5.759-11.467 9.064-18.578 10.916-7.712 2.003-15.874 2.905-23.836 3.456-8.363.6-16.725-.15-24.988-1.352-7.361-1.102-15.073-2.154-21.432-6.31-.802-.5-1.553.801-.752 1.302z" transform="translate(-696 -158) translate(696 158) translate(153.733 130.198) translate(84.128 205.312)"></path><path fill="#161616" d="M90.137 14.121c.951 5.208 1.252 10.416.851 15.674-.05.952 1.452.952 1.502 0 .401-5.408.05-10.766-.901-16.074-.15-.952-1.602-.551-1.452.4z" transform="translate(-696 -158) translate(696 158) translate(153.733 130.198) translate(84.128 205.312)"></path><path fill="#161616" d="M2.504 20.681C10.466 6.961 28.293 2.954 43.015 2.103c8.714-.5 17.477.2 25.99 2.204 4.056.951 8.112 2.103 12.018 3.655 3.706 1.452 7.311 3.405 9.164 7.11.45.852 1.753.101 1.302-.75-3.556-7.01-13.32-9.264-20.28-11.017C62.043 1.002 52.478.1 43.064.651c-15.223.901-33.5 5.108-41.763 19.33-.6.75.701 1.502 1.202.7zM38.859 44.918c3.155 28.493 5.258 57.087 6.36 85.73.05.952 1.552.952 1.502 0-1.052-28.643-3.155-57.237-6.36-85.73-.1-.951-1.602-.951-1.502 0zM48.373 44.918c.1 28.794 1.052 57.537 2.905 86.281.05.952 1.552.952 1.502 0-1.853-28.744-2.804-57.487-2.904-86.28-.05-.952-1.553-.952-1.503 0z" transform="translate(-696 -158) translate(696 158) translate(153.733 130.198) translate(84.128 205.312)"></path><path fill="#161616" d="M45.118 130.198c-11.217 5.157-20.831 13.12-28.142 23.085-.25.35 0 1.051.45 1.101 10.366 1.703 20.832.852 31.198-.3 10.115-1.102 20.33-2.204 30.095-5.108.501-.15.802-.901.351-1.252-8.112-6.81-16.976-12.519-26.49-17.126-.851-.4-1.653.902-.751 1.302 9.414 4.507 18.177 10.166 26.19 16.876.1-.4.2-.852.35-1.252-9.665 2.904-19.73 3.956-29.695 5.058-10.216 1.151-20.581 2.003-30.797.35.15.35.3.751.45 1.102 7.112-9.765 16.626-17.477 27.593-22.534.8-.401.05-1.703-.802-1.302z" transform="translate(-696 -158) translate(696 158) translate(153.733 130.198) translate(84.128 205.312)"></path></g><g><path fill="#000" d="M28.844 127.243c1.152 4.557 2.353 9.114 3.505 13.67-6.21-2.002-11.567-3.054-15.473-3.655-2.805-.4-14.673-2.203-15.474.3-.3.952 1.102 2.404 1.252 2.555 1.152 1.151 2.554 1.252 3.806 1.552 2.554.55 3.405 1.502 6.059 2.804 4.006 2.003 12.67 5.158 22.384 6.91 3.305.602 7.612 1.203 12.82 1.403-2.054-8.964-4.157-17.927-6.21-26.891-4.206.4-8.463.851-12.67 1.352z" transform="translate(-696 -158) translate(696 158) translate(153.733 130.198) translate(49.074 75.615)"></path><path fill="#FFF" d="M26.89 1.803c-2.253.901-4.005 2.704-6.81 8.162-4.506 8.713-5.908 14.923-5.908 14.923C9.965 43.566 7.912 52.93 7.16 60.19c-2.304 23.035 1.502 24.037 1.352 48.224 0 1.802-.05 5.708 2.253 9.514 3.656 5.959 10.717 7.662 12.67 8.162 5.758 1.402 11.217.401 15.874-.45 1.302-.25 2.403-.501 3.154-.701 3.606 2.854 6.91 4.807 9.265 6.109 4.556 2.454 8.512 4.607 14.02 5.208 3.406.4 6.711.1 8.163 0 2.504-.2 4.557-.601 6.11-.902 2.353.802 5.958 1.703 10.415 1.803 2.805.05 12.018.1 20.13-5.909 7.262-5.358 9.766-12.569 11.568-17.877 1.703-5.108 8.213-24.487-1.602-34.853-8.513-9.014-24.688-6.41-37.607-4.306-6.21 1.001-11.317 2.553-14.923 3.855-5.959-15.423-10.366-27.591-13.37-36.004-2.854-7.962-7.01-15.474-9.515-23.536-2.253-7.21-3.455-12.97-8.613-15.874-.35-.2-5.057-2.704-9.614-.851z" transform="translate(-696 -158) translate(696 158) translate(153.733 130.198) translate(49.074 75.615)"></path><path fill="#161616" d="M79.02 136.557c13.27 3.055 28.493 1.052 37.607-10.065 4.557-5.558 6.01-12.469 7.261-19.38 1.252-7.16 1.953-14.471-.35-21.482-.301-.901-1.753-.5-1.453.4 2.254 6.76 1.603 13.822.35 20.682-1.15 6.61-2.503 13.37-6.86 18.728-8.713 10.717-23.385 12.57-36.154 9.665-.952-.25-1.353 1.202-.401 1.452zM49.125 28.043c-.702-6.71-2.454-13.621-5.81-19.53C40.813 4.156 36.806 0 31.399.25c-5.709.25-9.915 4.858-12.269 9.615-3.205 6.31-5.208 13.47-7.06 20.23-3.806 13.872-5.96 28.244-6.41 42.615-.25 7.612-.05 15.274.6 22.885.601 6.86 1.102 14.322 3.055 20.932 1.653 5.658 9.214 9.014 14.472 10.366 6.31 1.602 12.87 1.051 18.779-1.553.901-.4.1-1.702-.752-1.302-5.308 2.354-11.267 2.855-16.925 1.603-4.958-1.102-12.52-4.157-14.122-9.465-.851-2.854-1.151-5.959-1.602-8.913-.55-3.556-.952-7.111-1.302-10.716-.55-6.06-.851-12.169-.801-18.278.05-12.77 1.402-25.489 4.106-37.958 1.302-5.959 2.854-11.868 4.757-17.677 1.903-5.808 3.706-12.669 8.062-17.176 2.454-2.504 5.96-4.256 9.515-3.605 3.405.65 6.009 3.305 7.812 6.11 3.805 5.808 5.658 13.17 6.41 20.03 0 1.001 1.502 1.051 1.402.05z" transform="translate(-696 -158) translate(696 158) translate(153.733 130.198) translate(49.074 75.615)"></path><path fill="#161616" d="M22.985 42.965c-1.703 18.278.2 36.856 5.608 54.433 2.604 8.413 5.659 17.727 10.967 24.888 4.707 6.36 12.068 10.566 19.53 12.92 8.613 2.753 18.077 2.904 26.24-1.253.85-.45.1-1.752-.752-1.302-7.461 3.806-16.024 3.806-23.886 1.503-8.062-2.354-16.124-6.961-20.832-14.072-4.607-7.01-7.51-15.473-9.915-23.485-2.503-8.163-4.256-16.576-5.207-25.088-1.052-9.465-1.102-19.03-.25-28.494.1-1.001-1.403-1.001-1.503-.05z" transform="translate(-696 -158) translate(696 158) translate(153.733 130.198) translate(49.074 75.615)"></path><path fill="#161616" d="M19.73 37.657c.3 6.56 1.252 13.02 2.904 19.38.25.951 1.703.55 1.453-.401-1.653-6.21-2.604-12.57-2.855-18.979-.05-.951-1.552-.951-1.502 0zM48.073 28.143C57.537 50.727 65.9 73.812 73.161 97.248c.3.9 1.753.55 1.452-.401-7.21-23.436-15.573-46.47-25.088-69.105-.4-.851-1.853-.45-1.452.4zM27.942 127.944c1.302 4.507 2.604 9.014 3.906 13.57.25.952 1.703.552 1.453-.4-1.302-4.507-2.604-9.014-3.906-13.57-.3-.902-1.753-.501-1.453.4z" transform="translate(-696 -158) translate(696 158) translate(153.733 130.198) translate(49.074 75.615)"></path><path fill="#161616" d="M32.45 140.613c-10.016-3.956-20.782-5.308-31.499-3.906-.4.05-.951.451-.7.952 1.301 3.205 4.957 4.156 7.861 5.408 4.157 1.803 8.313 3.556 12.57 5.058 8.512 3.054 17.376 5.158 26.44 4.907.951 0 .951-1.502 0-1.502-8.013.2-15.875-1.402-23.436-3.956-3.656-1.202-7.211-2.604-10.766-4.106-1.903-.801-3.856-1.603-5.76-2.454-1.952-.851-4.606-1.653-5.507-3.806-.25.3-.501.651-.702.952 10.566-1.402 21.183-.05 31.098 3.856.901.4 1.252-1.052.4-1.403z" transform="translate(-696 -158) translate(696 158) translate(153.733 130.198) translate(49.074 75.615)"></path><path fill="#161616" d="M40.562 125.24c1.051 9.264 5.458 17.777 6.109 27.091.05.952 1.552.952 1.502 0-.65-9.314-5.058-17.827-6.11-27.09-.1-.952-1.602-.952-1.501 0z" transform="translate(-696 -158) translate(696 158) translate(153.733 130.198) translate(49.074 75.615)"></path><path fill="#4C4C4C" d="M25.84 125.69c-1.703-4.356-4.057-10.866-6.31-18.878-.952-3.455-7.061-26.04-5.76-55.284.351-7.661 1.203-16.124 7.312-22.284 2.354-2.353 5.008-5.007 7.311-4.456 9.615 2.253-7.662 53.33 16.525 80.922 12.419 14.172 30.346 15.975 33.25 16.225 25.74 2.304 43.116-16.175 45.32-18.578.15 3.054-.05 7.812-2.104 13.12-3.705 9.614-10.916 14.572-13.62 16.224-12.47 7.612-25.54 4.057-27.743 3.406-3.605.55-8.412.85-13.87 0-12.32-1.903-20.632-8.413-24.338-11.768-1.552.851-4.506 2.153-8.362 2.353-3.355.25-6.01-.45-7.612-1.001z" opacity=".1" transform="translate(-696 -158) translate(696 158) translate(153.733 130.198) translate(49.074 75.615)"></path><path fill="#4C4C4C" d="M21.633 37.156c.65-.05.901 5.86 4.206 25.139 3.856 22.784 5.809 34.151 8.663 40.611 3.606 8.213 12.92 22.935 40.862 33.801-4.006.15-10.666-.05-18.327-2.904-7.211-2.654-12.27-6.56-15.173-9.164-3.155.701-6.31 1.402-9.415 2.103-1.903-5.708-4.256-13.47-6.31-22.784-7.811-35.104-5.958-66.701-4.506-66.802z" opacity=".13" transform="translate(-696 -158) translate(696 158) translate(153.733 130.198) translate(49.074 75.615)"></path></g><g><path fill="#FFF" d="M4.557 23.335c-.25 1.052 1.302 2.454 2.554 3.055 2.053 1.002 4.006.15 4.306 0 0 0 4.607-.5 8.864 2.003 1.302.751 2.504 2.354 4.807 5.559 4.257 5.808 4.807 7.761 7.612 9.614 1.953 1.302 3.855 1.803 5.057 2.003 1.202 1.352 3.055 3.455 5.308 6.06 8.063 9.414 8.613 11.116 12.42 14.421 4.105 3.606 9.063 8.012 14.922 7.361 3.105-.35 5.608-2.053 9.614-6.059 8.313-8.362 14.072-17.576 19.23-28.092 5.558-11.318 6.81-16.826 7.36-19.48.301-1.652 3.256-16.575-1-18.478-1.653-.751-3.807.701-7.061 3.305-11.768 9.414-18.729 19.28-19.23 19.98-3.705 5.358-8.362 12.77-12.92 22.284L44.919 35.754c-.45-.951-1.001-2.453-1.001-4.306 0-3.055 1.552-4.207 2.554-7.612 1.051-3.505 1.201-8.312-.501-9.114-1.202-.55-3.506.802-4.557 2.554-1.102 1.803-.45 3.405-1.502 4.056-1.352.852-3.806-.85-4.057-1.001-2.704-1.903-2.453-4.257-4.557-8.112-2.253-4.157-5.257-6.46-7.06-7.862C21.733 2.454 18.929.3 16.124 1.052c-.45.1-2.303.65-2.954 2.303-.3.801-.2 1.552-.1 2.003-.2-.15-2.003-1.252-4.006-.5-1.402.5-2.554 1.802-2.805 3.304-.1.651 0 1.202.1 1.603-.25-.1-2.403-.651-3.905.65-.25.201-1.102.952-1.102 2.004 0 .851.601 1.552 1.653 2.403 2.253 1.853 3.956 2.304 6.059 3.456 1.051.55 2.453 1.502 4.056 2.954-2.754 0-8.162.25-8.563 2.103z" transform="translate(-696 -158) translate(696 158) translate(153.733 130.198) translate(0 69.105)"></path><path fill="#161616" d="M67.002 47.122c8.763-17.076 18.428-35.354 36.405-44.318.851-.45.1-1.702-.751-1.302C84.478 10.516 74.613 29.044 65.75 46.32c-.501.902.801 1.653 1.252.802z" transform="translate(-696 -158) translate(696 158) translate(153.733 130.198) translate(0 69.105)"></path><path fill="#161616" d="M44.918 36.706c7.712 5.158 17.326 7.31 23.936 14.071.702.701 1.753-.35 1.052-1.052-6.71-6.86-16.425-9.063-24.237-14.321-.8-.551-1.552.75-.75 1.302z" transform="translate(-696 -158) translate(696 158) translate(153.733 130.198) translate(0 69.105)"></path><path fill="#161616" d="M38.659 46.62c3.655 6.31 8.212 12.07 13.47 17.077 4.707 4.456 10.867 10.165 17.777 10.315 6.31.15 10.616-5.107 13.971-9.765 5.008-6.96 9.615-14.171 13.921-21.582 4.407-7.562 9.064-15.574 9.264-24.537 0-.952-1.502-.952-1.502 0-.2 9.614-5.708 18.227-10.516 26.24-4.607 7.761-9.364 16.024-15.323 22.784-2.754 3.155-6.31 5.759-10.666 5.308-4.858-.5-9.164-4.006-12.77-7.06-6.56-5.51-12.018-12.17-16.374-19.53-.451-.852-1.753-.1-1.252.75z" transform="translate(-696 -158) translate(696 158) translate(153.733 130.198) translate(0 69.105)"></path><path fill="#161616" d="M40.01 45.67c-2.002-.952-4.306-1.253-6.259-2.354-2.003-1.152-3.405-3.105-4.707-5.008-2.303-3.405-4.407-6.96-7.662-9.564-1.502-1.202-3.254-2.204-5.157-2.704-2.104-.601-4.006-.25-6.16-.15-1.352.05-4.156.1-4.256-1.954-.15-2.003 2.654-1.702 3.806-1.752 2.553-.15 5.007 0 7.36 1.001.902.35 1.303-1.101.401-1.452-2.804-1.152-5.658-1.202-8.663-1.002-1.452.1-3.355.1-4.156 1.553-.701 1.252-.15 2.854.801 3.856 1.603 1.702 4.006 1.352 6.11 1.151 7.51-.75 11.968 5.258 15.673 10.917 1.302 2.003 2.654 4.006 4.507 5.508 2.253 1.803 5.058 2.053 7.562 3.305.9.35 1.702-.951.8-1.352zM46.02 36.005c-2.704-3.155-.2-8.063.751-11.468.701-2.453 1.703-5.859.4-8.312-.75-1.453-2.403-2.354-4.005-1.753-.902.35-1.603 1.052-2.104 1.853-.7 1.152-.901 4.306-2.303 4.657-.952.2-.551 1.652.4 1.452 1.703-.4 2.054-2.103 2.554-3.555.25-.751.751-2.704 1.703-2.855l2.704 1.503c.05.45.1.85.2 1.302.1 1.802-.45 3.655-.901 5.358-1.202 4.056-3.555 9.164-.4 12.92.55.7 1.602-.401 1-1.102zM5.358 15.524c-.751-.401-1.552-.852-2.153-1.403-.851-.45-1.002-1.101-.45-1.902-.05-1.152.55-1.553 1.752-1.353 2.253-.15 4.206.952 6.16 1.853 3.354 1.603 6.56 3.305 9.363 5.759.701.651 1.803-.4 1.052-1.052-2.454-2.153-5.208-3.805-8.112-5.258-2.754-1.402-5.709-3.154-8.914-2.804-1.652.2-3.605.801-3.555 2.754.05 2.254 2.353 3.656 4.056 4.657.851.501 1.602-.8.801-1.251z" transform="translate(-696 -158) translate(696 158) translate(153.733 130.198) translate(0 69.105)"></path><path fill="#161616" d="M7.311 9.464C4.657 7.461 8.112 6.11 9.164 5.91c1.001-.15 2.003.1 2.954.4 1.603.551 3.055 1.503 4.457 2.454 2.704 1.853 5.158 4.006 7.461 6.36.702.701 1.753-.35 1.052-1.052-3.756-3.805-9.164-9.214-14.822-9.714-3.556-.3-7.412 3.555-3.706 6.36.751.65 1.502-.652.751-1.253z" transform="translate(-696 -158) translate(696 158) translate(153.733 130.198) translate(0 69.105)"></path><path fill="#161616" d="M13.821 4.958c-1.803-2.254 2.253-3.055 3.455-2.855.501.1.952.25 1.452.4 1.603.552 3.055 1.453 4.357 2.505 2.354 1.852 4.307 4.206 6.11 6.61.6.75 1.902 0 1.301-.752C27.341 6.71 23.636 2.354 18.378.851c-1.753-.5-4.056-.65-5.458.802-1.252 1.301-1.252 3.054-.15 4.356.6.751 1.652-.3 1.051-1.051z" transform="translate(-696 -158) translate(696 158) translate(153.733 130.198) translate(0 69.105)"></path><path fill="#161616" d="M28.694 10.566c1.852 3.155 3.505 6.51 5.608 9.514 1.302 1.853 3.205 3.205 5.508 2.254.902-.35.501-1.803-.4-1.452-3.055 1.202-4.657-3.005-5.86-5.058-1.2-2.003-2.353-4.056-3.554-6.06-.451-.8-1.753-.05-1.302.802zM4.106 16.225c2.804 1.852 5.659 3.655 8.463 5.508.801.55 1.552-.751.751-1.302-2.804-1.853-5.658-3.656-8.463-5.508-.8-.501-1.552.8-.75 1.302z" transform="translate(-696 -158) translate(696 158) translate(153.733 130.198) translate(0 69.105)"></path><path fill="#4C4C4C" d="M2.604 11.267c2.003-.951 5.058 1.703 6.96 3.255 9.265 7.562 9.715 4.907 15.023 10.366 5.409 5.508 5.258 8.513 10.666 11.818 2.554 1.552 4.958 2.353 6.61 2.754.952 1.352 2.354 3.355 4.207 5.658 6.66 8.363 10.115 12.72 15.523 14.723.451.15 9.114 3.255 16.325-.952 5.759-3.355 5.759-8.713 12.47-26.19 8.462-22.033 11.867-24.787 14.07-24.587 1.302.1 2.504 1.302 3.055 2.254 1.152 1.953.25 4.056-.951 8.913-1.152 4.607-.902 4.808-1.603 7.612-1.953 7.411-5.458 11.517-15.373 28.293-1.602 2.654-3.756 6.36-7.461 10.666-3.155 3.706-5.158 5.909-8.263 6.96-5.208 1.753-10.316-.95-12.77-2.253-3.304-1.753-5.658-3.906-9.363-8.262-3.456-4.007-7.862-9.665-12.47-16.976-1.051 0-2.704-.2-4.506-.952-1.553-.7-3.556-1.953-8.413-8.913-3.455-4.958-3.405-5.659-5.158-6.81-2.754-1.803-6.16-2.104-7.912-2.254-4.056-.4-6.21.45-7.26-.951-.652-.902-.702-2.404 0-3.255 1.702-2.104 7.51.5 7.76-.15.151-.451-2.152-1.653-6.158-4.057-4.758-2.854-6.26-3.956-6.16-5.158.05-.75.601-1.302 1.152-1.552z" opacity=".12" transform="translate(-696 -158) translate(696 158) translate(153.733 130.198) translate(0 69.105)"></path></g><g><path fill="#FFF" d="M7.261.701c-2.704.55-3.756 5.609-4.807 10.366-1.302 6.11-1.402 11.267-1.252 15.173.35 10.766 2.654 21.032 5.558 27.09 1.553 3.256 2.504 3.656 4.307 7.863.6 1.402 1.051 2.604 2.253 3.555 2.304 1.753 5.308 1.102 5.559 1.002 3.104-.751 4.757-3.455 5.558-4.808 2.254-3.855 2.304-7.811 1.753-14.672-.801-10.366-1.202-15.523-2.805-20.982-1.402-4.857-3.755-10.966-8.112-17.226C12.67 4.156 9.865.2 7.261.702z" transform="translate(-696 -158) translate(696 158) translate(153.733 130.198) translate(159.742 60.592)"></path><path fill="#161616" d="M7.311 2.053c2.704-.3 4.657 3.005 6.06 4.958 1.251 1.752 2.403 3.605 3.505 5.458 2.153 3.856 3.906 7.912 5.208 12.118 2.603 8.313 3.705 17.026 3.605 25.74-.05 4.506 0 10.415-3.806 13.62-1.752 1.452-4.406 2.354-6.56 1.302-2.253-1.102-3.555-4.106-4.707-6.16C6.01 50.778 3.105 41.564 2.103 32.1c-1.101-10.266-.35-21.533 5.308-30.396C7.912.9 6.61.15 6.11.95.3 10.065-.5 21.633.601 32.1 1.703 42.915 5.258 53.68 11.117 62.845c2.153 3.355 5.158 5.359 9.164 3.806 4.156-1.602 6.009-5.759 6.56-9.915 1.402-9.815.05-20.681-2.604-30.196-1.553-5.558-3.756-10.916-6.66-15.924-1.402-2.404-3.005-4.707-4.707-6.86C11.417 1.953 9.815.25 7.36.5 6.36.65 6.36 2.153 7.311 2.053z" transform="translate(-696 -158) translate(696 158) translate(153.733 130.198) translate(159.742 60.592)"></path><path fill="#4C4C4C" d="M8.863 2.003c-1.302 6.36-1.953 13.72-1.151 21.833.8 7.762 2.704 13.47 5.158 20.882 1.952 5.859 4.657 12.77 8.412 20.38-1.051.652-2.704 1.403-4.507 1.153-3.655-.551-5.808-4.808-7.26-8.113C4.205 46.32 1.551 40.411 1.101 30.296.45 16.425 4.156 1.052 7.412 1.002c.6 0 1.1.55 1.451 1.001z" opacity=".11" transform="translate(-696 -158) translate(696 158) translate(153.733 130.198) translate(159.742 60.592)"></path></g><g><path fill="#E76E51" d="M2.554 16.074c-.25 2.154-.5 5.208-.751 8.864-.2 2.754-.701 10.816-.501 18.478.45 15.123 3.756 27.141 5.809 34.402 1.853 6.51 3.806 11.868 5.308 15.674.15 1.452.5 3.505 1.252 5.809 3.605 10.816 12.92 16.174 15.173 17.476 11.267 6.31 22.484 4.006 25.789 3.305 3.305-.75 13.971-3.205 20.982-12.669 2.303-3.055 4.356-7.06 6.31-17.727.9-4.957 3.004-17.977 1.502-40.21-1.553-22.635-5.208-31.148-7.362-35.405-1.902-3.855-3.905-6.86-5.308-8.863C59.09.4 49.375.3 43.917.65c-9.164.6-16.175 3.355-23.035 6.06C13.12 9.814 6.91 13.32 2.554 16.073z" transform="translate(-696 -158) translate(696 158) translate(153.733 130.198) translate(95.645 55.084)"></path><path fill="#161616" d="M1.502 17.426c-3.705 26.44.25 53.532 11.317 77.819.401.9 1.703.1 1.302-.752C3.205 70.607-.7 43.816 2.954 17.827c.1-.951-1.352-1.352-1.452-.4z" transform="translate(-696 -158) translate(696 158) translate(153.733 130.198) translate(95.645 55.084)"></path><path fill="#161616" d="M10.766 91.539c1.803 12.569 10.867 23.435 22.785 27.792 12.72 4.657 27.992 1.903 38.158-7.01 5.308-4.608 8.963-10.817 9.664-17.878.1-.951-1.402-.951-1.502 0-1.652 16.876-20.33 26.44-35.754 25.489-15.924-.951-29.645-12.92-31.898-28.844-.15-.901-1.603-.5-1.453.45zM2.404 17.426C22.284 4.907 47.172-3.956 70.056 5.91c.902.4 1.653-.901.751-1.302C47.372-5.508 22.033 3.255 1.602 16.124c-.75.551 0 1.853.802 1.302z" transform="translate(-696 -158) translate(696 158) translate(153.733 130.198) translate(95.645 55.084)"></path><path fill="#161616" d="M70.056 5.759c5.409 4.957 7.512 13.27 9.064 20.23 1.703 7.612 2.704 15.424 3.355 23.236 1.302 15.473.851 31.097-2.253 46.37-.2.952 1.252 1.352 1.452.4 3.305-16.024 3.706-32.398 2.153-48.673-.75-7.862-1.752-15.824-3.655-23.536-1.653-6.61-3.856-14.322-9.014-19.079-.751-.65-1.803.4-1.102 1.052zM19.63 99.952c6.31 5.758 14.071 9.364 22.534 10.415.951.1.951-1.402 0-1.502-8.062-1.001-15.524-4.507-21.483-10.015-.7-.6-1.802.45-1.051 1.102z" transform="translate(-696 -158) translate(696 158) translate(153.733 130.198) translate(95.645 55.084)"></path><path fill="#4C4C4C" d="M42.314 1.252c1.853 2.904 3.756 5.859 5.609 8.763 3.856 9.364 8.613 23.035 11.567 40.161 1.452 8.563 2.855 16.575 2.354 26.59-.45 9.014-2.754 25.339-14.372 44.218 2.554-.05 6.26-.35 10.466-1.703 1.753-.55 14.672-4.907 20.932-17.176 2.604-5.108 3.054-9.665 3.455-15.173 2.103-29.545.15-48.624-.952-55.184-.9-5.408-2.203-11.668-5.758-18.778-1.853-3.656-3.806-6.46-5.158-8.263-3.455-1.502-8.613-3.255-15.023-3.906-5.258-.5-9.765-.1-13.12.45z" opacity=".15" transform="translate(-696 -158) translate(696 158) translate(153.733 130.198) translate(95.645 55.084)"></path><path fill="#4C4C4C" d="M76.566 17.075c-1.803.101-2.704 10.968-3.305 18.279-1.352 16.725-.35 28.793-.15 33.15.55 11.718-2.203 28.643-17.026 50.927 2.354-.6 5.859-1.752 9.715-3.906 3.305-1.852 8.012-4.507 11.417-10.015 1.152-1.903 2.955-5.358 3.606-10.316 1.602-9.214 3.205-22.434 2.654-38.308-.751-18.828-4.407-39.96-6.91-39.81z" opacity=".11" transform="translate(-696 -158) translate(696 158) translate(153.733 130.198) translate(95.645 55.084)"></path></g><g fill="#000"><path d="M2.103 6.31C4.907 47.122 2.553 88.034.2 128.795c-.1 1.953 2.905 1.903 3.005 0C5.609 88.034 7.912 47.122 5.108 6.31c-.15-1.953-3.155-1.953-3.005 0z" transform="translate(-696 -158) translate(696 158) translate(153.733 130.198) translate(97.648 103.157)"></path><path stroke="#000" stroke-width="1.002" d="M3.155 4.457c14.772.6 30.947.55 48.373-.551C64.698 3.105 77.067 1.753 88.534.1c-.25 12.72-.55 25.389-.8 38.108-12.67 2.504-27.342 4.557-43.767 5.408-14.522.751-27.792.35-39.46-.55L3.155 4.455z" transform="translate(-696 -158) translate(696 158) translate(153.733 130.198) translate(97.648 103.157)"></path><path d="M86.23 8.513C82.526 46.97 78.87 85.43 75.165 123.888c-.2 1.903 2.804 1.903 3.005 0 3.705-38.458 7.36-76.917 11.066-115.375.2-1.903-2.804-1.903-3.004 0z" transform="translate(-696 -158) translate(696 158) translate(153.733 130.198) translate(97.648 103.157)"></path></g><g><path fill="#FFF" d="M1.903 27.442c-.35 1.001 0 2.954.4 5.458.1.701.401 2.103 1.102 4.457 1.252 4.106 2.704 7.11 3.055 7.812 3.555 7.21 7.962 11.868 9.214 13.12 2.103 2.103 4.056 3.705 5.458 4.757 4.357-1.753 8.713-3.556 13.12-5.308 1.552-1.152 3.956-3.255 5.558-6.71 2.905-6.26 1.352-13.12-.951-17.127-8.062-14.07-35.203-11.367-36.956-6.46z" transform="translate(-696 -158) translate(696 158) translate(153.733 130.198) translate(91.64)"></path><path fill="#161616" d="M1.102 31.498c1.502 6.76 4.006 13.27 7.611 19.229 1.703 2.804 3.656 5.458 5.759 7.962 1.853 2.203 3.806 4.357 6.76 5.058.952.2 1.352-1.252.4-1.452-3.104-.702-5.207-3.556-7.16-5.96-2.003-2.453-3.756-5.107-5.308-7.811-3.105-5.459-5.308-11.318-6.61-17.427-.2-.901-1.653-.5-1.452.4z" transform="translate(-696 -158) translate(696 158) translate(153.733 130.198) translate(91.64)"></path><path fill="#161616" d="M12.419 43.816c-.2-4.356 5.007-3.004 6.71-.75 2.003 2.603 1.452 8.212-2.954 7.46-.952-.15-1.353 1.303-.401 1.453 5.659.951 7.561-5.96 4.557-9.865-2.604-3.405-9.715-4.156-9.414 1.652.05 1.002 1.552 1.002 1.502.05z" transform="translate(-696 -158) translate(696 158) translate(153.733 130.198) translate(91.64)"></path><path fill="#000" d="M1.352 30.396c-.65-2.303-1.753-6.009.2-9.665 1.703-3.104 4.657-4.406 5.86-4.807-.05-.7-.201-4.607 2.804-7.862 3.054-3.255 6.96-3.405 7.661-3.405 1.252-.951 3.055-2.153 5.458-3.004.852-.3 4.808-1.703 9.465-1.002 6.41.951 7.511 4.807 14.672 7.862 2.404 1.001 6.21 2.253 11.467 2.404-1.251 1.452-2.553 2.954-3.805 4.406.951 1.052 2.253 2.704 3.205 5.008.5 1.152 1.402 3.806 1.201 8.863-.2 4.908-1.402 8.864-2.403 12.269-1.803 5.909-2.855 7.662-1.803 10.065 1.152 2.704 3.906 3.455 3.555 4.607-.4 1.252-3.906 1.402-6.36 1.102-3.655-.45-5.958-2.053-6.359-1.502-.5.65 2.955 2.954 2.404 4.456-.651 1.953-7.211 1.653-11.918.551-1.603-.35-4.407-1.202-7.712-3.054-4.206-2.354-7.01-5.258-8.663-7.261 1.252-2.805 1.101-5.91-.601-8.063-.15-.2-2.654-3.255-5.659-2.403-1.652.5-2.554 1.953-2.804 2.403-2.153-1.202-7.812-4.957-9.865-11.968z" transform="translate(-696 -158) translate(696 158) translate(153.733 130.198) translate(91.64)"></path><path fill="#4C4C4C" d="M7.511 16.275c1.052 3.154 7.912 2.554 13.02 4.256 3.656 1.202 8.513 4.357 12.87 13.07-1.202-3.906-6.76-20.03-19.98-23.636-1.253-.35-2.605-.6-4.157-.7-.5.6-1.502 2.002-1.803 3.955 0 .25-.3 1.953.05 3.055z" opacity=".24" transform="translate(-696 -158) translate(696 158) translate(153.733 130.198) translate(91.64)"></path><path fill="#4C4C4C" d="M18.178 4.357c.901-.701 2.203-1.603 3.855-2.304 1.302-.55 2.504-.851 3.456-1.051 2.604 2.253 6.56 5.157 11.918 7.31 9.064 3.656 17.176 3.205 21.332 2.655-.65 1.201-1.803 2.904-3.705 4.256-6.961 4.958-17.377.701-22.334-1.302-3.456-1.402-8.964-4.156-14.522-9.564z" opacity=".17" transform="translate(-696 -158) translate(696 158) translate(153.733 130.198) translate(91.64)"></path><path fill="#4C4C4C" d="M42.815 38.809c-.801.25.25 5.909.6 7.611.802 3.906 2.054 7.061 3.106 9.164 1.602.501 3.204 1.052 4.757 1.553-5.91-15.374-7.812-18.528-8.463-18.328z" opacity=".14" transform="translate(-696 -158) translate(696 158) translate(153.733 130.198) translate(91.64)"></path><path fill="#4C4C4C" d="M19.129 44.868c.15 1.252.25 2.404-.4 3.355-.802 1.152-2.054.952-3.155 2.604-.401.601-.401.902-.3 1.052.25.45 1.301.25 1.802.25 2.604.1 4.156 2.754 5.959 4.307 1.452 1.302 3.956 2.654 8.463 2.754-2.204-1.202-4.757-2.804-7.361-4.958-1.453-1.202-2.755-2.453-3.856-3.605.5-1.102 1.402-3.556.45-6.06-.7-1.902-2.303-3.254-2.503-3.104-.25.15.65 1.302.901 3.405z" opacity=".12" transform="translate(-696 -158) translate(696 158) translate(153.733 130.198) translate(91.64)"></path></g></g></g></g></g></svg>